<svg width="895" height="599" viewBox="0 0 895 599" fill="none" xmlns="http://www.w3.org/2000/svg">
<path fill-rule="evenodd" clip-rule="evenodd" d="M290.903 8.28599C291.582 7.90499 292.418 7.90499 293.096 8.28599C296.451 10.169 306.547 15.837 309.903 17.72C310.582 18.1 311 18.804 311 19.566C311 23.332 311 34.667 311 38.433C311 39.195 310.582 39.899 309.903 40.28C306.548 42.163 296.452 47.831 293.096 49.714C292.417 50.095 291.581 50.095 290.903 49.714C287.548 47.831 277.452 42.163 274.096 40.28C273.418 39.899 273 39.196 273 38.434C273 34.668 273 23.333 273 19.567C273 18.805 273.418 18.101 274.097 17.72C277.451 15.837 287.549 10.169 290.903 8.28599Z" fill="#00549D"/>
<path fill-rule="evenodd" clip-rule="evenodd" d="M273.304 39.404C273.038 39.048 273 38.71 273 38.255C273 34.511 273 23.241 273 19.496C273 18.738 273.417 18.038 274.094 17.66C277.437 15.788 287.499 10.153 290.842 8.27998C291.519 7.90098 292.436 7.90898 293.113 8.28798C296.456 10.16 306.484 15.747 309.827 17.619C310.097 17.771 310.303 17.954 310.487 18.195L273.304 39.404Z" fill="#0086D4"/>
<path fill-rule="evenodd" clip-rule="evenodd" d="M292 15C299.727 15 306 21.273 306 29C306 36.727 299.727 43 292 43C284.273 43 278 36.727 278 29C278 21.273 284.273 15 292 15ZM292 22C295.863 22 299 25.136 299 29C299 32.863 295.863 36 292 36C288.137 36 285 32.863 285 29C285 25.136 288.136 22 292 22Z" fill="white"/>
<path fill-rule="evenodd" clip-rule="evenodd" d="M310.485 18.205C311.001 18.688 310.991 19.416 310.991 19.989C310.991 23.784 310.959 34.578 311 38.373C311.004 38.769 310.873 39.186 310.677 39.5L291.593 29L310.485 18.205Z" fill="#0075C0"/>
<path fill-rule="evenodd" clip-rule="evenodd" d="M299 26H301V32H299V26ZM306 26H308V32H306V26Z" fill="white"/>
<path fill-rule="evenodd" clip-rule="evenodd" d="M297 28H303V30H297V28ZM304 28H310V30H304V28Z" fill="white"/>
<path d="M563 53C526.976 96.1351 456.413 206.924 462.353 305" stroke="url(#paint0_linear_118_82)"/>
<path d="M611 53C561.066 96.1351 463.255 206.924 471.489 305" stroke="url(#paint1_linear_118_82)"/>
<path d="M668 53C597.735 96.991 460.102 209.978 471.688 310" stroke="url(#paint2_linear_118_82)"/>
<path d="M725 53C634.405 97.6757 456.949 212.422 471.887 314" stroke="url(#paint3_linear_118_82)"/>
<path d="M777 53C667.858 97.6757 454.073 212.422 472.068 314" stroke="url(#paint4_linear_118_82)"/>
<path d="M511 49C474.45 95.6204 446.801 208 452.828 314" stroke="url(#paint5_linear_118_82)" stroke-opacity="0.97"/>
<path d="M305 47C347.945 92.8403 427.639 232.774 420.558 337" stroke="url(#paint6_linear_118_82)"/>
<path d="M244 49C309.528 93.2596 431.13 228.368 420.325 329" stroke="url(#paint7_linear_118_82)"/>
<path d="M172 48C263.073 90.0466 432.079 218.399 417.062 314" stroke="url(#paint8_linear_118_82)"/>
<path d="M368 47C409.612 92.9677 436.803 242.484 429.942 347" stroke="url(#paint9_linear_118_82)"/>
<path d="M418 49C433.586 119.252 435 295.521 435 353" stroke="url(#paint10_linear_118_82)"/>
<path d="M456.447 47C448.075 111.385 442.024 262.144 442.5 314.5" stroke="url(#paint11_linear_118_82)"/>
<ellipse cx="452" cy="434" rx="271" ry="165" fill="url(#paint12_radial_118_82)"/>
<circle cx="440" cy="383" r="90" fill="url(#paint13_linear_118_82)"/>
<g filter="url(#filter0_d_118_82)">
<path fill-rule="evenodd" clip-rule="evenodd" d="M478.508 342.891C478.508 345.14 476.685 346.963 474.435 346.963H406.436C404.187 346.963 402.364 345.14 402.364 342.891C402.364 340.641 404.187 338.818 406.436 338.818H474.435C476.685 338.818 478.508 340.641 478.508 342.891Z" fill="white"/>
<path fill-rule="evenodd" clip-rule="evenodd" d="M478.508 424.746C478.508 426.995 476.685 428.818 474.435 428.818H406.436C404.187 428.818 402.364 426.995 402.364 424.746C402.364 422.496 404.187 420.673 406.436 420.673H474.435C476.685 420.673 478.508 422.496 478.508 424.746Z" fill="white"/>
<path d="M449.002 342.891L417.592 382.866L449.002 425.698" stroke="white" stroke-width="8"/>
</g>
<path d="M440.5 302.5C562.105 302.5 672.179 317.55 751.835 341.872C791.666 354.034 823.863 368.505 846.091 384.552C868.331 400.606 880.5 418.168 880.5 436.5C880.5 454.832 868.331 472.394 846.091 488.448C823.863 504.495 791.666 518.966 751.835 531.128C672.179 555.45 562.105 570.5 440.5 570.5C318.895 570.5 208.821 555.45 129.165 531.128C89.3343 518.966 57.1374 504.495 34.9092 488.448C12.6694 472.394 0.5 454.832 0.5 436.5C0.5 418.168 12.6694 400.606 34.9092 384.552C57.1374 368.505 89.3343 354.034 129.165 341.872C208.821 317.55 318.895 302.5 440.5 302.5Z" stroke="url(#paint14_linear_118_82)"/>
<path d="M445 302.5C550.445 302.5 645.887 317.55 714.949 341.866C749.482 354.025 777.394 368.492 796.661 384.531C815.931 400.573 826.5 418.137 826.5 436.5C826.5 454.863 815.931 472.427 796.661 488.469C777.394 504.508 749.482 518.975 714.949 531.134C645.887 555.45 550.445 570.5 445 570.5C339.555 570.5 244.113 555.45 175.051 531.134C140.518 518.975 112.606 504.508 93.3389 488.469C74.0685 472.427 63.5 454.863 63.5 436.5C63.5 418.137 74.0685 400.573 93.3389 384.531C112.606 368.492 140.518 354.025 175.051 341.866C244.113 317.55 339.555 302.5 445 302.5Z" stroke="url(#paint15_linear_118_82)"/>
<path d="M455.5 302.5C551.414 302.5 638.225 317.548 701.039 341.86C732.448 354.017 757.832 368.481 775.354 384.516C792.877 400.55 802.5 418.118 802.5 436.5C802.5 454.882 792.877 472.45 775.354 488.484C757.832 504.519 732.448 518.983 701.039 531.14C638.225 555.452 551.414 570.5 455.5 570.5C359.586 570.5 272.775 555.452 209.961 531.14C178.552 518.983 153.168 504.519 135.646 488.484C118.123 472.45 108.5 454.882 108.5 436.5C108.5 418.118 118.123 400.55 135.646 384.516C153.168 368.481 178.552 354.017 209.961 341.86C272.775 317.548 359.586 302.5 455.5 302.5Z" stroke="url(#paint16_linear_118_82)"/>
<path d="M442 292.5C483.322 292.5 520.714 305.23 547.764 325.788C574.813 346.346 591.5 374.71 591.5 406C591.5 437.29 574.813 465.654 547.764 486.212C520.714 506.77 483.322 519.5 442 519.5C400.678 519.5 363.286 506.77 336.236 486.212C309.187 465.654 292.5 437.29 292.5 406C292.5 374.71 309.187 346.346 336.236 325.788C363.286 305.23 400.678 292.5 442 292.5Z" stroke="url(#paint17_linear_118_82)"/>
<path d="M437 292.5C473.357 292.5 506.252 303.162 530.045 320.376C553.839 337.59 568.5 361.329 568.5 387.5C568.5 413.671 553.839 437.41 530.045 454.624C506.252 471.838 473.357 482.5 437 482.5C400.643 482.5 367.748 471.838 343.955 454.624C320.161 437.41 305.5 413.671 305.5 387.5C305.5 361.329 320.161 337.59 343.955 320.376C367.748 303.162 400.643 292.5 437 292.5Z" stroke="url(#paint18_linear_118_82)"/>
<path d="M853.093 390.749C853.093 389.196 851.426 387.725 848.87 386.813C849.46 383.776 849.198 381.358 848.043 380.584C847.763 380.401 847.446 380.309 847.125 380.317V381.382C847.314 381.382 847.465 381.426 847.593 381.507C848.149 381.88 848.391 383.297 848.203 385.122C848.158 385.571 848.084 386.044 847.994 386.526C847.138 386.285 846.269 386.112 845.393 386.006C844.872 385.166 844.302 384.368 843.69 383.617C845.025 382.17 846.278 381.378 847.131 381.378V380.312C846.004 380.312 844.529 381.249 843.038 382.872C841.548 381.26 840.073 380.332 838.947 380.332V381.396C839.795 381.396 841.052 382.185 842.388 383.622C841.814 384.325 841.241 385.122 840.696 386.006C839.818 386.11 838.948 386.286 838.091 386.531C838.001 386.074 837.929 385.612 837.878 385.146C837.685 383.321 837.923 381.903 838.476 381.526C838.598 381.44 838.758 381.401 838.947 381.401V380.337C838.603 380.337 838.291 380.423 838.022 380.603C836.87 381.378 836.613 383.789 837.206 386.818C834.659 387.736 833 389.201 833 390.749C833 392.301 834.667 393.772 837.223 394.683C836.633 397.722 836.895 400.139 838.05 400.912C838.316 401.094 838.628 401.18 838.971 401.18C840.098 401.18 841.572 400.244 843.063 398.62C844.554 400.234 846.028 401.16 847.155 401.16C847.478 401.168 847.797 401.076 848.08 400.893C849.231 400.12 849.489 397.708 848.895 394.679C851.435 393.767 853.093 392.296 853.093 390.749ZM847.76 387.563C847.601 388.201 847.417 388.831 847.208 389.449C846.865 388.673 846.489 387.917 846.081 387.185C846.663 387.286 847.224 387.41 847.761 387.563H847.76ZM845.885 392.65C845.578 393.274 845.249 393.883 844.898 394.474C843.669 394.601 842.433 394.602 841.204 394.479C840.499 393.305 839.882 392.062 839.361 390.763C839.882 389.462 840.495 388.214 841.196 387.034C842.425 386.907 843.66 386.905 844.889 387.028C845.229 387.596 845.562 388.203 845.881 388.844C846.192 389.469 846.475 390.103 846.733 390.744C846.472 391.392 846.189 392.028 845.885 392.65ZM847.208 392.029C847.429 392.668 847.618 393.309 847.773 393.93C847.237 394.083 846.671 394.212 846.086 394.311C846.492 393.573 846.866 392.811 847.208 392.029ZM843.055 397.125C842.674 396.666 842.293 396.156 841.916 395.596C842.285 395.616 842.661 395.63 843.042 395.63C843.428 395.63 843.808 395.621 844.181 395.596C843.813 396.156 843.432 396.666 843.055 397.125ZM840.007 394.311C839.443 394.216 838.883 394.09 838.328 393.934C838.48 393.318 838.668 392.683 838.881 392.048C839.049 392.429 839.226 392.812 839.418 393.194C839.611 393.576 839.807 393.949 840.007 394.311ZM843.034 384.372C843.415 384.831 843.796 385.342 844.173 385.901C843.804 385.882 843.428 385.867 843.047 385.867C842.661 385.867 842.281 385.877 841.908 385.901C842.276 385.342 842.657 384.831 843.034 384.372ZM840.003 387.186C839.597 387.923 839.223 388.683 838.881 389.464C838.666 388.841 838.478 388.207 838.316 387.563C838.852 387.414 839.418 387.286 840.003 387.186ZM836.297 393.165C834.847 392.445 833.909 391.498 833.909 390.749C833.909 389.999 834.847 389.048 836.297 388.332C836.649 388.155 837.034 387.997 837.431 387.85C837.665 388.785 837.972 389.76 838.352 390.758C837.993 391.698 837.69 392.665 837.444 393.652C837.055 393.512 836.672 393.349 836.297 393.165ZM838.5 399.99C837.944 399.619 837.702 398.199 837.89 396.375C837.935 395.926 838.009 395.453 838.099 394.97C838.902 395.2 839.778 395.377 840.7 395.492C841.222 396.331 841.791 397.129 842.404 397.88C841.068 399.327 839.815 400.12 838.963 400.12C838.802 400.122 838.643 400.077 838.5 399.991V399.99ZM848.216 396.351C848.408 398.176 848.17 399.594 847.617 399.971C847.495 400.057 847.335 400.095 847.146 400.095C846.298 400.095 845.041 399.307 843.705 397.869C844.316 397.121 844.881 396.325 845.397 395.487C846.275 395.382 847.145 395.206 848.002 394.962C848.097 395.444 848.169 395.907 848.216 396.351ZM849.792 393.165C849.44 393.342 849.055 393.5 848.658 393.647C848.407 392.655 848.1 391.683 847.737 390.739C848.113 389.746 848.416 388.776 848.645 387.845C849.035 387.986 849.419 388.148 849.796 388.332C851.246 389.053 852.184 389.999 852.184 390.749C852.18 391.498 851.242 392.449 849.792 393.165Z" fill="url(#paint19_linear_118_82)"/>
<path d="M843.042 392.931C843.539 392.931 844.015 392.701 844.366 392.292C844.717 391.882 844.914 391.327 844.914 390.748C844.914 390.169 844.717 389.614 844.366 389.204C844.015 388.795 843.539 388.565 843.042 388.565C842.546 388.565 842.07 388.795 841.719 389.204C841.368 389.614 841.17 390.169 841.17 390.748C841.17 391.327 841.368 391.882 841.719 392.292C842.07 392.701 842.546 392.931 843.042 392.931Z" fill="url(#paint20_linear_118_82)"/>
<path d="M782.607 349.991H772.393C771.624 349.991 771 350.719 771 351.616V363.527C771 364.424 771.624 365.152 772.393 365.152H782.607C783.376 365.152 784 364.424 784 363.527V351.616C784 350.719 783.376 349.991 782.607 349.991ZM778.075 361.815C778.075 363.29 777.332 363.964 776.249 363.964C775.271 363.964 774.706 363.375 774.415 362.661L775.411 361.96C775.602 362.356 775.776 362.691 776.197 362.691C776.598 362.691 776.853 362.509 776.853 361.795V356.952H778.075V361.815ZM780.965 363.964C779.83 363.964 779.096 363.334 778.739 362.509L779.734 361.839C779.996 362.336 780.338 362.705 780.939 362.705C781.444 362.705 781.769 362.411 781.769 362.001C781.769 361.514 781.438 361.341 780.878 361.054L780.573 360.901C779.691 360.465 779.108 359.913 779.108 358.752C779.108 357.683 779.807 356.871 780.895 356.871C781.673 356.871 782.23 357.186 782.63 358.011L781.679 358.722C781.47 358.285 781.243 358.113 780.892 358.113C780.535 358.113 780.309 358.377 780.309 358.722C780.309 359.148 780.535 359.321 781.06 359.588L781.365 359.741C782.404 360.258 782.987 360.79 782.987 361.981C782.987 363.26 782.123 363.964 780.965 363.964Z" fill="url(#paint21_linear_118_82)"/>
<path d="M886.996 454.948C886.756 454.948 886.513 454.869 886.302 454.72L884.092 453.115C883.763 452.886 883.924 452.807 884.031 452.763C884.472 452.574 884.561 452.535 885.03 452.205C885.081 452.17 885.145 452.183 885.195 452.222L886.893 453.458C886.953 453.502 887.039 453.502 887.097 453.458L893.711 448.771C893.772 448.727 893.811 448.639 893.811 448.551V439.177C893.811 439.085 893.772 439.001 893.707 438.953L887.097 434.271C887.036 434.227 886.953 434.227 886.893 434.271L880.286 438.957C880.221 439.001 880.182 439.089 880.182 439.182V448.551C880.182 448.639 880.221 448.727 880.286 448.767L882.098 450.05C883.082 450.653 883.684 449.945 883.684 449.228V439.978C883.684 439.846 883.77 439.744 883.877 439.744H884.715C884.819 439.744 884.909 439.846 884.909 439.978V449.233C884.909 450.842 884.192 451.765 882.95 451.765C882.567 451.765 882.266 451.765 881.428 451.255L879.695 450.028C879.265 449.725 879 449.158 879 448.547V439.177C879 438.571 879.265 437.999 879.695 437.696L886.302 433.009C886.721 432.718 887.276 432.718 887.691 433.009L894.305 437.7C894.735 438.003 895 438.571 895 439.182V448.551C895 449.158 894.735 449.725 894.305 450.033L887.691 454.72C887.48 454.869 887.24 454.948 886.996 454.948ZM892.336 445.711C892.336 443.957 891.369 443.491 889.338 443.161C887.283 442.827 887.075 442.655 887.075 442.066C887.075 441.578 887.251 440.927 888.773 440.927C890.13 440.927 890.631 441.288 890.839 442.413C890.857 442.519 890.936 442.598 891.025 442.598H891.885C891.938 442.598 891.988 442.572 892.024 442.523C892.06 442.475 892.078 442.409 892.074 442.343C891.942 440.404 890.893 439.503 888.773 439.503C886.885 439.503 885.761 440.479 885.761 442.119C885.761 443.895 886.882 444.387 888.69 444.607C890.857 444.867 891.025 445.258 891.025 445.781C891.025 446.687 890.431 447.074 889.038 447.074C887.286 447.074 886.903 446.533 886.774 445.465C886.76 445.35 886.681 445.267 886.585 445.267H885.729C885.621 445.267 885.539 445.372 885.539 445.5C885.539 446.867 886.144 448.498 889.041 448.498C891.132 448.494 892.336 447.478 892.336 445.711Z" fill="url(#paint22_linear_118_82)"/>
<path fill-rule="evenodd" clip-rule="evenodd" d="M769.035 520.254C767.353 520.254 766 521.9 766 523.916C766 525.142 766.501 526.231 767.27 526.896C766.873 527.242 766.552 527.692 766.331 528.209C766.111 528.727 765.997 529.297 766 529.875C766 531.101 766.501 532.189 767.27 532.854C766.873 533.201 766.552 533.65 766.331 534.168C766.111 534.685 765.997 535.256 766 535.833C766 537.85 767.353 539.496 769.035 539.496C770.717 539.496 772.071 537.85 772.071 535.833V532.737C772.602 533.254 773.272 533.537 773.965 533.538C775.647 533.537 777 531.891 777 529.875C777.003 529.297 776.889 528.727 776.669 528.209C776.448 527.692 776.127 527.242 775.73 526.896C776.127 526.549 776.448 526.099 776.669 525.582C776.889 525.064 777.003 524.494 777 523.916C777 521.9 775.647 520.254 773.965 520.254H769.035ZM767.141 523.916C767.141 522.641 767.994 521.619 769.035 521.619H770.929V526.213H769.035C767.994 526.213 767.141 525.191 767.141 523.916ZM773.965 526.212H772.071V521.618H773.965C775.006 521.618 775.859 522.641 775.859 523.916C775.859 525.191 775.006 526.212 773.965 526.212ZM767.141 529.875C767.141 528.6 767.995 527.578 769.036 527.578H770.93V532.172H769.035C767.994 532.172 767.141 531.15 767.141 529.875H767.141ZM772.071 529.875C772.071 528.6 772.924 527.578 773.965 527.578C775.007 527.578 775.86 528.599 775.86 529.875C775.86 531.15 775.007 532.172 773.965 532.172C772.924 532.172 772.071 531.15 772.071 529.875H772.071ZM767.141 535.833C767.141 534.559 767.995 533.537 769.036 533.537H770.93V535.833C770.93 537.109 770.078 538.13 769.036 538.13C767.995 538.13 767.141 537.109 767.141 535.833Z" fill="url(#paint23_linear_118_82)"/>
<path d="M837.334 452.615H828.256C827.01 452.615 826 453.793 826 455.246V465.437C826 466.89 827.01 468.068 828.256 468.068H837.334C838.58 468.068 839.591 466.89 839.591 465.437V455.246C839.591 453.793 838.58 452.615 837.334 452.615Z" fill="url(#paint24_linear_118_82)"/>
<path d="M833.144 456.68L831.449 459.944L833.263 463.41C833.275 463.434 833.278 463.463 833.272 463.49C833.269 463.501 833.263 463.504 833.254 463.505L833.244 463.504L833.231 463.504C833.224 463.504 833.217 463.504 833.208 463.506H831.9L831.875 463.506C831.804 463.503 831.753 463.492 831.722 463.431C831.601 463.156 831.48 462.882 831.358 462.607C831.248 462.363 831.136 462.12 831.021 461.879L830.97 461.773C830.832 461.487 830.697 461.2 830.564 460.912H830.555C830.433 461.197 830.307 461.481 830.177 461.762C830.046 462.046 829.917 462.328 829.789 462.607C829.662 462.888 829.531 463.166 829.397 463.442C829.376 463.498 829.34 463.51 829.29 463.512L829.27 463.512H828.021L828.015 463.513L827.997 463.514C827.988 463.515 827.982 463.513 827.98 463.495C827.976 463.469 827.981 463.443 827.993 463.421L829.753 460.05L828.039 456.669C828.021 456.641 828.018 456.618 828.03 456.6C828.037 456.591 828.045 456.584 828.054 456.58C828.064 456.575 828.074 456.573 828.085 456.574H829.37C829.398 456.572 829.426 456.577 829.452 456.59C829.474 456.604 829.493 456.624 829.507 456.648C829.616 456.932 829.738 457.215 829.872 457.499C830.004 457.78 830.139 458.06 830.277 458.339C830.413 458.613 830.539 458.893 830.656 459.179H830.665C830.784 458.893 830.907 458.609 831.034 458.328C831.158 458.052 831.286 457.773 831.417 457.493C831.546 457.217 831.672 456.939 831.795 456.659C831.802 456.633 831.815 456.609 831.832 456.59C831.854 456.576 831.879 456.571 831.905 456.574H833.099C833.11 456.571 833.121 456.572 833.132 456.577C833.142 456.582 833.151 456.591 833.157 456.602C833.162 456.614 833.165 456.627 833.163 456.64C833.162 456.653 833.157 456.665 833.149 456.675L833.145 456.68L833.144 456.68ZM835.824 463.643L835.761 463.644C835.341 463.651 834.926 463.55 834.544 463.346C834.188 463.154 833.891 462.841 833.691 462.448C833.49 462.058 833.387 461.572 833.382 460.991L833.381 460.944C833.378 460.456 833.485 459.975 833.691 459.551C833.898 459.131 834.199 458.785 834.563 458.55L834.594 458.53C834.989 458.275 835.466 458.147 836.025 458.147L836.05 458.148L836.078 458.149L836.109 458.15L836.144 458.153L836.202 458.157L836.269 458.164L836.317 458.169V456.074C836.317 456.024 836.335 456 836.372 456H837.521C837.528 455.998 837.536 455.999 837.543 456.002C837.55 456.005 837.556 456.009 837.562 456.016C837.567 456.022 837.571 456.029 837.573 456.038C837.576 456.046 837.576 456.055 837.575 456.063V462.347C837.575 462.452 837.579 462.566 837.586 462.688L837.603 462.964L837.612 463.123C837.613 463.145 837.608 463.167 837.598 463.186C837.589 463.205 837.574 463.22 837.557 463.229C837.261 463.374 836.952 463.48 836.636 463.548C836.368 463.606 836.096 463.638 835.824 463.643ZM836.317 462.326V459.423C836.268 459.408 836.218 459.397 836.167 459.391C836.105 459.384 836.042 459.38 835.98 459.381C835.759 459.378 835.54 459.436 835.342 459.551C835.148 459.663 834.984 459.831 834.863 460.04C834.743 460.245 834.68 460.513 834.676 460.844L834.676 460.88C834.672 461.111 834.704 461.342 834.772 461.56C834.827 461.736 834.914 461.895 835.027 462.028C835.135 462.15 835.266 462.241 835.41 462.294C835.562 462.351 835.72 462.38 835.879 462.379C835.965 462.379 836.044 462.375 836.117 462.368C836.175 462.363 836.232 462.352 836.289 462.335L836.317 462.326Z" fill="white"/>
<path d="M723.624 363.445C724.693 362.729 725.759 362.007 726.831 361.299C727.849 360.626 729.046 361.246 729.277 362.555C729.41 363.312 729.121 364.13 728.535 364.528C726.613 365.834 724.689 367.135 722.755 368.416C722.156 368.812 721.54 368.739 720.994 368.253C720.44 367.76 720.265 367.08 720.395 366.288C720.544 365.686 720.883 365.283 721.346 364.981C722.112 364.483 722.865 363.958 723.624 363.445Z" fill="url(#paint25_linear_118_82)"/>
<path d="M724.409 362.925C723.343 362.203 722.274 361.488 721.212 360.759C720.203 360.067 720.065 358.548 720.922 357.66C721.417 357.147 722.169 357.031 722.758 357.423C724.689 358.711 726.617 360.004 728.535 361.317C729.129 361.723 729.383 362.383 729.295 363.176C729.206 363.982 728.788 364.499 728.135 364.764C727.613 364.915 727.144 364.774 726.689 364.457C725.936 363.932 725.169 363.434 724.409 362.925Z" fill="url(#paint26_linear_118_82)"/>
<path d="M714.693 362.414C714.009 362.868 713.325 363.32 712.641 363.775C712.242 364.04 711.846 364.315 711.444 364.577C710.635 365.104 709.673 364.795 709.214 363.867C708.776 362.981 709.028 361.833 709.807 361.302C711.714 360.005 713.625 358.717 715.543 357.443C716.131 357.052 716.741 357.101 717.285 357.568C717.86 358.061 718.047 358.755 717.919 359.568C717.839 359.765 717.791 359.995 717.671 360.15C717.476 360.403 717.255 360.644 717.008 360.821C716.246 361.37 715.466 361.886 714.693 362.414Z" fill="url(#paint27_linear_118_82)"/>
<path d="M713.909 362.922C714.587 363.386 715.265 363.851 715.945 364.314C716.342 364.585 716.744 364.847 717.139 365.122C717.935 365.676 718.187 366.801 717.727 367.729C717.288 368.614 716.31 368.934 715.526 368.412C713.609 367.136 711.697 365.85 709.792 364.55C709.208 364.151 708.939 363.51 709.014 362.727C709.093 361.901 709.514 361.364 710.182 361.088C710.368 361.07 710.563 361.003 710.738 361.046C711.023 361.117 711.313 361.22 711.568 361.38C712.357 361.876 713.13 362.406 713.909 362.922Z" fill="url(#paint28_linear_118_82)"/>
<path fill-rule="evenodd" clip-rule="evenodd" d="M127 422.295C123.134 422.295 120 426.211 120 431.041C120 435.871 123.134 439.788 127 439.788C130.866 439.788 134 435.871 134 431.041C134 426.211 130.866 422.295 127 422.295ZM127.082 436.156C124.825 436.156 122.998 433.868 122.998 431.041C122.998 428.215 124.825 425.926 127.082 425.926C128.184 425.926 129.106 426.434 129.813 427.259L128.661 428.701V428.698C128.233 428.186 127.689 427.924 127.082 427.924C125.734 427.924 124.639 429.35 124.639 431.038C124.639 432.726 125.734 434.156 127.082 434.156C128.304 434.156 129.136 433.28 129.308 432.077H127.082V430.082H130.923C130.974 430.425 131.002 430.782 131.002 431.156C131.002 434.079 129.44 436.156 127.082 436.156Z" fill="url(#paint29_linear_118_82)"/>
<path d="M31.2117 490.976H33.101V491.913H32.0017V492.851H33.101V493.788H31.2117V490.976ZM33.4784 490.976H35.3685V491.791H34.2692V491.954H35.3685V493.829H33.4784V492.973H34.5777V492.81H33.4784V490.976ZM35.7466 490.976H37.6352V491.791H36.5359V491.954H37.6352V493.829H35.7466V492.973H36.8459V492.81H35.7466V490.976Z" fill="url(#paint30_linear_118_82)"/>
<path fill-rule="evenodd" clip-rule="evenodd" d="M34.4935 511.308L29.4784 509.685L28 495.077H41L39.5223 509.683L34.4935 511.308ZM30.9228 501.69L31.0608 503.481H36.3886L36.2102 505.804L34.4957 506.344H34.4942L32.7826 505.805L32.6728 504.377H31.1294L31.3446 507.19L34.4935 508.209L37.6474 507.19L38.0317 502.17L38.0692 501.69L38.3466 498.063H30.6462L30.7863 499.855H36.6623L36.5222 501.69H30.9228Z" fill="url(#paint31_linear_118_82)"/>
<path d="M187.501 329.63H198.501V343.106H187.501V329.63ZM187 343.736H199V329H187V343.736ZM194.86 334.252C194.86 334.202 194.875 334.177 194.92 334.177H195.705C195.745 334.177 195.765 334.195 195.765 334.252V339.221C195.765 339.271 195.755 339.296 195.705 339.296H194.931C194.881 339.296 194.866 339.265 194.866 339.214V334.252H194.86H194.86ZM194.805 332.823C194.805 332.652 194.859 332.489 194.955 332.369C195.05 332.248 195.18 332.18 195.315 332.18C195.45 332.18 195.58 332.248 195.676 332.369C195.771 332.489 195.825 332.652 195.825 332.823C195.83 332.91 195.82 332.997 195.795 333.079C195.771 333.16 195.733 333.234 195.683 333.295C195.634 333.356 195.574 333.403 195.509 333.433C195.444 333.462 195.374 333.473 195.305 333.465C195.238 333.47 195.17 333.457 195.107 333.427C195.044 333.396 194.986 333.349 194.939 333.288C194.892 333.227 194.855 333.154 194.832 333.074C194.809 332.993 194.8 332.908 194.806 332.823H194.805ZM192.555 336.324C192.415 335.623 192.084 334.102 191.96 333.365H191.95C191.845 334.102 191.581 335.348 191.371 336.324H192.555ZM191.165 337.345L190.77 339.234C190.76 339.284 190.745 339.297 190.695 339.297H189.961C189.911 339.297 189.901 339.278 189.911 339.202L191.331 332.941C191.365 332.77 191.382 332.595 191.381 332.418C191.381 332.374 191.396 332.355 191.421 332.355H192.471C192.506 332.355 192.521 332.368 192.531 332.418L194.121 339.213C194.131 339.263 194.121 339.295 194.081 339.295H193.251C193.211 339.295 193.186 339.283 193.176 339.241L192.766 337.346H191.166L191.165 337.345Z" fill="url(#paint32_linear_118_82)"/>
<path fill-rule="evenodd" clip-rule="evenodd" d="M82 367.567C82 367.236 82.1107 366.918 82.3077 366.684C82.5047 366.45 82.7719 366.318 83.0505 366.318H93.5224C93.6604 366.318 93.7972 366.35 93.9248 366.413C94.0524 366.475 94.1684 366.567 94.2661 366.683C94.3638 366.799 94.4413 366.937 94.4941 367.089C94.5469 367.24 94.5741 367.403 94.574 367.567V380.014C94.5742 380.178 94.5471 380.341 94.4943 380.492C94.4416 380.644 94.3642 380.782 94.2665 380.898C94.1689 381.014 94.053 381.106 93.9254 381.169C93.7978 381.232 93.661 381.264 93.5229 381.264H83.0505C82.9125 381.264 82.7758 381.232 82.6484 381.169C82.5209 381.106 82.405 381.014 82.3075 380.898C82.2099 380.782 82.1326 380.644 82.0798 380.493C82.027 380.341 81.9999 380.179 82 380.015V367.567ZM86.977 372.017H88.6797V373.033C88.9254 372.449 89.5541 371.923 90.4989 371.923C92.3101 371.923 92.7393 373.087 92.7393 375.222V379.177H90.9064V375.708C90.9064 374.492 90.6606 373.806 90.0365 373.806C89.1706 373.806 88.8105 374.546 88.8105 375.708V379.177H86.977V372.017ZM83.8335 379.084H85.667V371.923H83.8335V379.083V379.084ZM85.9294 369.587C85.9328 369.774 85.9049 369.959 85.8472 370.133C85.7895 370.307 85.7032 370.465 85.5934 370.598C85.4836 370.732 85.3525 370.838 85.2078 370.91C85.063 370.982 84.9076 371.02 84.7506 371.02C84.5935 371.02 84.4381 370.982 84.2934 370.91C84.1486 370.838 84.0175 370.732 83.9077 370.598C83.7979 370.465 83.7116 370.307 83.6539 370.133C83.5962 369.959 83.5683 369.774 83.5718 369.587C83.5785 369.221 83.7057 368.873 83.926 368.616C84.1464 368.36 84.4423 368.217 84.7506 368.217C85.0588 368.217 85.3548 368.36 85.5751 368.616C85.7954 368.873 85.9226 369.221 85.9294 369.587Z" fill="url(#paint33_linear_118_82)"/>
<path d="M140.754 500.43L142.232 502.826L149.714 500.43M132.979 519.089L137.027 514.516L134.591 511.495M140.14 500.43L137.977 502.682L141.616 502.838M131.731 500.431L132.507 502.271L136.79 502.578M134.023 509.971L137.187 503.153L128 502.577M134.391 510.402L137.38 514.111L140.676 510.379L141.698 503.425L137.682 503.186L134.391 510.402Z" fill="url(#paint34_linear_118_82)"/>
<path d="M164 36H157C153.134 36 150 32.866 150 29C150 25.134 153.134 22 157 22H164V36Z" fill="#7C4DFF"/>
<path d="M157 50C153.134 50 150 46.866 150 43C150 39.134 153.134 36 157 36H164V43C164 46.866 160.866 50 157 50Z" fill="#66BB6A"/>
<path d="M165 22H157C153.134 22 150 18.866 150 15C150 11.134 153.134 8 157 8H165V22Z" fill="#E64A19"/>
<path d="M171 22H164V8H171C174.866 8 178 11.134 178 15C178 18.866 174.866 22 171 22Z" fill="#FF7043"/>
<path d="M171 36C174.866 36 178 32.866 178 29C178 25.134 174.866 22 171 22C167.134 22 164 25.134 164 29C164 32.866 167.134 36 171 36Z" fill="#29B6F6"/>
<path d="M229 39C216.1 39 206 34.6 206 29C206 23.4 216.1 19 229 19C241.9 19 252 23.4 252 29C252 34.6 241.9 39 229 39ZM229 21C216.4 21 208 25.1 208 29C208 32.9 216.4 37 229 37C241.6 37 250 32.9 250 29C250 25.1 241.6 21 229 21Z" fill="#0288D1"/>
<path d="M220.1 49.6C219.1 49.6 218.3 49.4 217.5 48.9C212.6 46.1 213.9 35.2 220.3 24C223.3 18.8 227 14.4 230.6 11.6C234.5 8.60002 238 7.70002 240.4 9.10002C242.9 10.5 243.8 14 243.2 18.9C242.6 23.5 240.6 28.9 237.6 34.1C234.6 39.3 230.9 43.7 227.3 46.5C224.7 48.5 222.2 49.6 220.1 49.6ZM237.9 10.4C236.3 10.4 234.2 11.3 231.9 13.1C228.5 15.8 225 20 222.1 25C215.8 35.9 215.2 45.3 218.5 47.2C220.2 48.2 223 47.3 226.1 44.9C229.5 42.2 233 38 235.9 33C238.8 28 240.7 22.9 241.3 18.6C241.8 14.6 241.2 11.8 239.5 10.8C239 10.6 238.5 10.4 237.9 10.4Z" fill="#0288D1"/>
<path d="M238 49.6C233 49.6 225.8 43.5 220.4 34C213.9 22.8 212.6 11.9 217.5 9.10001C222.4 6.30001 231.2 12.8 237.7 24C240.7 29.2 242.7 34.6 243.3 39.2C244 44.1 243 47.5 240.5 49C239.7 49.4 238.9 49.6 238 49.6ZM218.5 10.8C215.2 12.7 215.8 22.1 222.1 33C228.4 43.9 236.2 49.1 239.5 47.2C241.2 46.2 241.8 43.4 241.3 39.4C240.7 35.1 238.8 30 235.9 25C229.6 14.1 221.8 8.90001 218.5 10.8Z" fill="#0288D1"/>
<path d="M229 33C231.209 33 233 31.2091 233 29C233 26.7909 231.209 25 229 25C226.791 25 225 26.7909 225 29C225 31.2091 226.791 33 229 33Z" fill="#0288D1"/>
<path d="M801 10H767L770 44L784 48L798 44L801 10Z" fill="#E65100"/>
<path d="M784 13V44.9L795.2 41.7L797.7 13H784Z" fill="#FF6D00"/>
<path d="M784 30V26H792.6L791.9 37.5L784 40.1V35.9L788.1 34.5L788.4 30H784ZM792.9 22L793.2 18H784V22H792.9Z" fill="white"/>
<path d="M784 35.9V40.1L776.1 37.5L775.7 32H779.7L779.9 34.5L784 35.9ZM779.1 22H784V18H774.9L775.6 30H784V26H779.4L779.1 22Z" fill="#EEEEEE"/>
<path d="M615.65 29.898C614.652 28.289 613.928 26.955 612.925 24.443C611.229 20.2 623.24 16.366 618.37 8.99902C620.481 14.088 610.793 17.234 609.893 21.472C609.07 25.37 615.645 29.898 615.65 29.898Z" fill="#D43A02"/>
<path d="M615.878 22.27C615.686 24.786 618.107 26.127 618.177 27.965C618.233 29.461 616.73 30.708 616.73 30.708C616.73 30.708 619.458 30.172 620.309 27.89C621.254 25.356 618.475 23.621 618.761 21.592C619.028 19.654 624.792 16.049 624.792 16.049C624.792 16.049 616.311 16.611 615.878 22.27Z" fill="#D43A02"/>
<path d="M624.084 30.055C625.838 29.661 627.317 30.778 627.317 32.065C627.317 34.966 623.296 37.708 623.296 37.708C623.296 37.708 629.521 36.966 629.521 32.203C629.521 29.053 626.464 28.266 624.084 30.055ZM621.129 32.395C621.129 32.395 623.07 31.012 623.587 30.493C618.824 31.504 607.949 31.64 607.949 30.762C607.949 29.953 611.456 29.124 611.456 29.124C611.456 29.124 603.683 29.012 603.683 31.305C603.683 33.695 613.858 33.866 621.129 32.395Z" fill="url(#paint35_linear_118_82)"/>
<path d="M619.935 34.571C615.426 36.07 607.121 35.591 609.581 33.578C608.383 33.578 606.607 34.541 606.607 35.467C606.607 37.324 615.589 38.758 622.237 36.039L619.935 34.571Z" fill="url(#paint36_linear_118_82)"/>
<path d="M610.686 37.739C609.05 37.739 607.991 38.793 607.991 39.561C607.991 41.952 617.751 42.193 621.618 39.766L619.16 38.134C616.271 39.404 609.014 39.579 610.686 37.739Z" fill="url(#paint37_linear_118_82)"/>
<path d="M628.281 41.632C628.281 40.696 627.226 40.255 626.848 40.044C629.076 45.417 604.531 45 604.531 41.828C604.531 41.107 606.338 40.401 608.008 40.735L606.588 39.896C603.26 39.374 601 40.837 601 42.017C601 47.52 628.281 47.255 628.281 41.632Z" fill="url(#paint38_linear_118_82)"/>
<path d="M631 43.604C626.854 47.699 616.341 49.191 605.769 46.661C616.341 51.164 630.95 48.628 631 43.604Z" fill="url(#paint39_linear_118_82)"/>
<path d="M711 47V11H747V47H711Z" fill="#FFD600"/>
<path d="M734.538 37.947C735.23 39.071 735.982 40.148 737.575 40.148C738.913 40.148 739.615 39.483 739.615 38.563C739.615 37.462 738.889 37.071 737.417 36.43L736.61 36.086C734.281 35.098 732.732 33.86 732.732 31.245C732.732 28.835 734.577 27.001 737.46 27.001C739.513 27.001 740.988 27.712 742.052 29.574L739.538 31.181C738.985 30.193 738.387 29.804 737.46 29.804C736.514 29.804 735.915 30.401 735.915 31.181C735.915 32.145 736.515 32.535 737.9 33.132L738.707 33.476C741.452 34.645 743 35.839 743 38.523C743 41.415 740.716 43 737.65 43C734.651 43 732.948 41.495 732 39.632L734.538 37.947ZM722.952 38.029C723.458 38.935 724.227 39.632 725.333 39.632C726.391 39.632 727 39.214 727 37.589V27H730.333V38.101C730.333 41.468 728.38 43 725.528 43C722.951 43 721.091 41.254 720.333 39.632L722.952 38.029Z" fill="#000001"/>
<path d="M461.5 44.25C450.041 44.25 440.717 37.6341 440.717 29.5C440.717 21.3659 450.041 14.75 461.5 14.75C472.96 14.75 482.283 21.3659 482.283 29.5C482.283 37.6341 472.96 44.25 461.5 44.25Z" fill="#DCD5F2"/>
<path d="M461.5 15.7333C472.378 15.7333 481.567 22.0385 481.567 29.5C481.567 36.9615 472.378 43.2667 461.5 43.2667C450.622 43.2667 441.433 36.9615 441.433 29.5C441.433 22.0385 450.622 15.7333 461.5 15.7333ZM461.5 13.7667C449.626 13.7667 440 20.8113 440 29.5C440 38.1887 449.626 45.2333 461.5 45.2333C473.374 45.2333 483 38.1887 483 29.5C483 20.8113 473.374 13.7667 461.5 13.7667Z" fill="#8B75A1"/>
<path d="M453.498 25.5666C454.355 25.5666 455.097 25.9659 455.481 26.6345C455.757 27.1144 455.833 27.726 455.706 28.4576C455.322 30.678 454.643 31.4666 451.594 31.4666H449.431L450.238 25.5666H453.498ZM453.498 23.6H449.049L447.167 37.3666H448.6L449.168 33.4333H451.594C454.746 33.4333 456.46 32.6132 457.101 28.9119C457.653 25.7318 455.823 23.6 453.498 23.6ZM472.131 25.5666C472.988 25.5666 473.731 25.9659 474.115 26.6345C474.39 27.1144 474.466 27.726 474.34 28.4576C473.956 30.678 473.276 31.4666 470.228 31.4666H468.065L468.872 25.5666H472.131ZM472.131 23.6H467.682L465.8 37.3666H467.233L467.801 33.4333H470.228C473.379 33.4333 475.094 32.6132 475.734 28.9119C476.286 25.7318 474.456 23.6 472.131 23.6Z" fill="#36404D"/>
<path d="M465.301 24.4339C464.83 23.84 463.997 23.6 462.754 23.6H460.105L460.752 19.6667H459.294L457.2 33.4334H458.656L459.862 25.5667H460.107H462.756C464.06 25.5667 464.324 25.8715 464.327 25.8715C464.354 25.9305 464.41 26.2531 464.315 26.9178L463.346 33.4334H464.845L465.72 27.2954C465.908 25.9836 465.766 25.02 465.301 24.4339Z" fill="#36404D"/>
<path d="M529 11H493V47H529V11Z" fill="url(#paint40_linear_118_82)"/>
<path d="M514.49 27H501.227V30.264H505.984V45H509.753V30.264H514.49V27Z" fill="white"/>
<path d="M526.194 31.084C526.194 31.084 524.407 29.892 522.387 29.892C520.367 29.892 519.64 30.852 519.64 31.878C519.64 34.526 527.021 34.261 527.021 39.59C527.021 47.799 515.767 44.158 515.767 44.158V40.22C515.767 40.22 517.919 41.842 520.5 41.842C523.081 41.842 522.983 40.154 522.983 39.922C522.983 37.473 515.668 37.473 515.668 32.044C515.668 24.663 526.326 27.575 526.326 27.575L526.194 31.084Z" fill="white"/>
<path d="M673.529 36.827L673.508 36.833L668.237 35.438L667.9 31.7405H665.338H663.149L663.812 39.02L673.506 41.657L673.529 41.651V36.827Z" fill="#EBEBEB"/>
<path d="M679.36 29.2265L678.79 35.435L673.512 36.83V41.654L683.214 39.02L683.286 38.237L684.109 29.2265H679.36Z" fill="white"/>
<path d="M658.037 45.8015L654.598 8H692.402L688.958 45.7955L673.477 50L658.037 45.8015Z" fill="#1572B6"/>
<path d="M673.5 46.787L686.01 43.3895L688.953 11.0915H673.5V46.787Z" fill="#33A9DC"/>
<path d="M673.5 24.7865H679.763L680.195 20.039H673.5V15.4025H673.517H685.367L685.254 16.646L684.092 29.423H673.5V24.7865Z" fill="white"/>
<path d="M673.517 15.4025V18.2825V20.027V20.039H662.1H662.085L661.99 18.9965L661.774 16.646L661.66 15.4025H673.517Z" fill="#EBEBEB"/>
<path d="M673.5 24.7865V27.6665V29.411V29.423H668.311H668.295L668.2 28.3805L667.986 26.03L667.873 24.7865H673.5Z" fill="#EBEBEB"/>
<path d="M355.007 50.419C354.433 50.419 353.864 50.269 353.361 49.979L348.121 46.876C347.338 46.438 347.72 46.283 347.978 46.194C349.022 45.829 349.233 45.746 350.347 45.113C350.464 45.046 350.617 45.07 350.737 45.141L354.763 47.53C354.908 47.609 355.115 47.609 355.249 47.53L370.946 38.469C371.091 38.386 371.186 38.218 371.186 38.045V19.932C371.186 19.751 371.092 19.59 370.943 19.5L355.253 10.446C355.108 10.36 354.915 10.36 354.77 10.446L339.082 19.499C338.93 19.585 338.833 19.754 338.833 19.927V38.041C338.833 38.214 338.927 38.379 339.077 38.461L343.376 40.944C345.71 42.111 347.136 40.736 347.136 39.353V21.476C347.136 21.221 347.336 21.024 347.592 21.024H349.58C349.828 21.024 350.032 21.22 350.032 21.476V39.362C350.032 42.474 348.335 44.262 345.384 44.262C344.476 44.262 343.761 44.262 341.765 43.28L337.647 40.907C336.629 40.317 336 39.216 336 38.042V19.928C336 18.749 336.629 17.649 337.646 17.067L353.36 8.00201C354.354 7.44001 355.674 7.44001 356.661 8.00201L372.355 17.071C373.367 17.656 374 18.753 374 19.932V38.046C374 39.221 373.367 40.317 372.354 40.907L356.66 49.971C356.157 50.262 355.587 50.411 355.006 50.411" fill="#21A366"/>
<path d="M359.856 37.937C352.988 37.937 351.548 34.784 351.548 32.14C351.548 31.889 351.751 31.688 352.003 31.688H354.031C354.255 31.688 354.444 31.851 354.479 32.072C354.785 34.138 355.697 35.18 359.85 35.18C363.158 35.18 364.565 34.433 364.565 32.678C364.565 31.668 364.164 30.918 359.025 30.415C354.726 29.991 352.07 29.044 352.07 25.606C352.07 22.439 354.742 20.553 359.217 20.553C364.243 20.553 366.734 22.298 367.048 26.046C367.06 26.176 367.013 26.301 366.926 26.396C366.84 26.486 366.718 26.541 366.592 26.541H364.553C364.341 26.541 364.156 26.392 364.113 26.187C363.622 24.014 362.435 23.319 359.209 23.319C355.598 23.319 355.178 24.576 355.178 25.519C355.178 26.662 355.673 26.996 360.545 27.641C365.37 28.281 367.661 29.185 367.661 32.576C367.661 35.994 364.808 37.955 359.834 37.955" fill="#21A366"/>
<path d="M394.312 15.75L399.188 18.75V33.75L394.312 30.75V15.75Z" fill="#29B6F6"/>
<path d="M431.688 27L426.812 30V39.75L431.688 36.75V27Z" fill="#0288D1"/>
<path d="M431.688 16.5L426.812 19.5V24.75L431.688 21.75V16.5Z" fill="#0288D1"/>
<path d="M421.938 15.75L417.062 18.75V33.75L421.938 30.75V15.75Z" fill="#0288D1"/>
<path d="M394.312 21L408.125 29.25V24L394.312 15.75V21Z" fill="#29B6F6"/>
<path d="M421.937 21L408.125 29.25V24L421.937 15.75V21Z" fill="#0288D1"/>
<path d="M421.937 31.5L408.125 39.75V34.5L421.937 26.25V31.5Z" fill="#0288D1"/>
<path d="M431.687 37.5L417.875 45.75V40.5L431.687 32.25V37.5Z" fill="#0288D1"/>
<path d="M417.875 40.3237L408.125 34.5V39.75L417.875 45.5737V40.3237Z" fill="#29B6F6"/>
<path d="M568 14.604C561.6 14.604 557.6 17.803 556 24.201C558.4 21.002 561.2 19.803 564.4 20.602C566.226 21.058 567.531 22.383 568.976 23.849C571.328 26.236 574.051 29 580 29C586.4 29 590.4 25.801 592 19.402C589.6 22.601 586.8 23.801 583.6 23.002C581.775 22.546 580.47 21.221 579.025 19.755C576.672 17.367 573.948 14.604 568 14.604ZM556 29C549.6 29 545.6 32.199 544 38.598C546.4 35.399 549.2 34.199 552.4 34.999C554.225 35.456 555.53 36.78 556.975 38.245C559.328 40.633 562.052 43.397 568 43.397C574.4 43.397 578.4 40.198 580 33.799C577.6 36.998 574.8 38.198 571.6 37.398C569.774 36.942 568.469 35.617 567.024 34.152C564.672 31.764 561.949 29 556 29Z" fill="#00ACC1"/>
<defs>
<filter id="filter0_d_118_82" x="388.364" y="325.818" width="104.144" height="118" filterUnits="userSpaceOnUse" color-interpolation-filters="sRGB">
<feFlood flood-opacity="0" result="BackgroundImageFix"/>
<feColorMatrix in="SourceAlpha" type="matrix" values="0 0 0 0 0 0 0 0 0 0 0 0 0 0 0 0 0 0 127 0" result="hardAlpha"/>
<feOffset dy="1"/>
<feGaussianBlur stdDeviation="7"/>
<feComposite in2="hardAlpha" operator="out"/>
<feColorMatrix type="matrix" values="0 0 0 0 1 0 0 0 0 1 0 0 0 0 1 0 0 0 0.55 0"/>
<feBlend mode="normal" in2="BackgroundImageFix" result="effect1_dropShadow_118_82"/>
<feBlend mode="normal" in="SourceGraphic" in2="effect1_dropShadow_118_82" result="shape"/>
</filter>
<linearGradient id="paint0_linear_118_82" x1="512.5" y1="53" x2="512.5" y2="305" gradientUnits="userSpaceOnUse">
<stop stop-color="#00E58A"/>
<stop offset="1" stop-color="#00E58A" stop-opacity="0"/>
</linearGradient>
<linearGradient id="paint1_linear_118_82" x1="541" y1="53" x2="541" y2="305" gradientUnits="userSpaceOnUse">
<stop stop-color="#00E58A"/>
<stop offset="1" stop-color="#00E58A" stop-opacity="0"/>
</linearGradient>
<linearGradient id="paint2_linear_118_82" x1="569.5" y1="53" x2="569.5" y2="310" gradientUnits="userSpaceOnUse">
<stop stop-color="#00E58A"/>
<stop offset="1" stop-color="#00E58A" stop-opacity="0"/>
</linearGradient>
<linearGradient id="paint3_linear_118_82" x1="598" y1="53" x2="598" y2="314" gradientUnits="userSpaceOnUse">
<stop stop-color="#00E58A"/>
<stop offset="1" stop-color="#00E58A" stop-opacity="0"/>
</linearGradient>
<linearGradient id="paint4_linear_118_82" x1="624" y1="53" x2="624" y2="314" gradientUnits="userSpaceOnUse">
<stop stop-color="#00E58A"/>
<stop offset="1" stop-color="#00E58A" stop-opacity="0"/>
</linearGradient>
<linearGradient id="paint5_linear_118_82" x1="481.5" y1="49" x2="481.5" y2="314" gradientUnits="userSpaceOnUse">
<stop stop-color="#00E58A"/>
<stop offset="1" stop-color="#00E58A" stop-opacity="0"/>
</linearGradient>
<linearGradient id="paint6_linear_118_82" x1="367.698" y1="71.1265" x2="367.698" y2="337" gradientUnits="userSpaceOnUse">
<stop stop-color="#00E58A"/>
<stop offset="1" stop-color="#00E58A" stop-opacity="0"/>
</linearGradient>
<linearGradient id="paint7_linear_118_82" x1="339.669" y1="72.2945" x2="339.669" y2="329" gradientUnits="userSpaceOnUse">
<stop stop-color="#00E58A"/>
<stop offset="1" stop-color="#00E58A" stop-opacity="0"/>
</linearGradient>
<linearGradient id="paint8_linear_118_82" x1="304.964" y1="70.1298" x2="304.964" y2="314" gradientUnits="userSpaceOnUse">
<stop stop-color="#00E58A"/>
<stop offset="1" stop-color="#00E58A" stop-opacity="0"/>
</linearGradient>
<linearGradient id="paint9_linear_118_82" x1="402.709" y1="69.2581" x2="402.709" y2="347" gradientUnits="userSpaceOnUse">
<stop stop-color="#00E58A"/>
<stop offset="1" stop-color="#00E58A" stop-opacity="0"/>
</linearGradient>
<linearGradient id="paint10_linear_118_82" x1="436.619" y1="74.2524" x2="436.619" y2="362.713" gradientUnits="userSpaceOnUse">
<stop stop-color="#00E58A"/>
<stop offset="1" stop-color="#00E58A" stop-opacity="0"/>
</linearGradient>
<linearGradient id="paint11_linear_118_82" x1="404978" y1="67.0971" x2="404978" y2="329.847" gradientUnits="userSpaceOnUse">
<stop stop-color="#00E58A"/>
<stop offset="1" stop-color="#00E58A" stop-opacity="0"/>
</linearGradient>
<radialGradient id="paint12_radial_118_82" cx="0" cy="0" r="1" gradientUnits="userSpaceOnUse" gradientTransform="translate(452 434) rotate(90) scale(165 271)">
<stop stop-color="#00E58A"/>
<stop offset="1" stop-color="#5CFDBD" stop-opacity="0"/>
</radialGradient>
<linearGradient id="paint13_linear_118_82" x1="440" y1="293" x2="440" y2="473" gradientUnits="userSpaceOnUse">
<stop stop-color="#5CFDBD" stop-opacity="0.6"/>
<stop offset="1" stop-color="#058E57" stop-opacity="0.36"/>
</linearGradient>
<linearGradient id="paint14_linear_118_82" x1="440.5" y1="302" x2="440.5" y2="571" gradientUnits="userSpaceOnUse">
<stop stop-color="#00E58A" stop-opacity="0"/>
<stop offset="0.490385" stop-color="#00E58A"/>
</linearGradient>
<linearGradient id="paint15_linear_118_82" x1="445" y1="302" x2="445" y2="571" gradientUnits="userSpaceOnUse">
<stop stop-color="#00E58A" stop-opacity="0"/>
<stop offset="0.479167" stop-color="#00E58A"/>
</linearGradient>
<linearGradient id="paint16_linear_118_82" x1="455.5" y1="302" x2="455.5" y2="571" gradientUnits="userSpaceOnUse">
<stop stop-color="#00E58A" stop-opacity="0"/>
<stop offset="0.653846" stop-color="#00E58A"/>
</linearGradient>
<linearGradient id="paint17_linear_118_82" x1="442" y1="292" x2="442" y2="520" gradientUnits="userSpaceOnUse">
<stop stop-color="#00E58A" stop-opacity="0"/>
<stop offset="1" stop-color="#00E58A"/>
</linearGradient>
<linearGradient id="paint18_linear_118_82" x1="437" y1="292" x2="437" y2="483" gradientUnits="userSpaceOnUse">
<stop stop-color="#00E58A" stop-opacity="0"/>
<stop offset="1" stop-color="#00E58A"/>
</linearGradient>
<linearGradient id="paint19_linear_118_82" x1="843.047" y1="380.312" x2="843.047" y2="401.18" gradientUnits="userSpaceOnUse">
<stop stop-color="#00E58A" stop-opacity="0.53"/>
<stop offset="1" stop-color="#00E58A"/>
</linearGradient>
<linearGradient id="paint20_linear_118_82" x1="843.042" y1="388.565" x2="843.042" y2="392.931" gradientUnits="userSpaceOnUse">
<stop stop-color="#00E58A" stop-opacity="0.53"/>
<stop offset="1" stop-color="#00E58A"/>
</linearGradient>
<linearGradient id="paint21_linear_118_82" x1="777.5" y1="349.991" x2="777.5" y2="365.152" gradientUnits="userSpaceOnUse">
<stop stop-color="#00E58A" stop-opacity="0.53"/>
<stop offset="1" stop-color="#00E58A"/>
</linearGradient>
<linearGradient id="paint22_linear_118_82" x1="887" y1="432.791" x2="887" y2="454.948" gradientUnits="userSpaceOnUse">
<stop stop-color="#00E58A" stop-opacity="0.53"/>
<stop offset="1" stop-color="#00E58A"/>
</linearGradient>
<linearGradient id="paint23_linear_118_82" x1="771.5" y1="520.254" x2="771.5" y2="539.496" gradientUnits="userSpaceOnUse">
<stop stop-color="#00E58A" stop-opacity="0.53"/>
<stop offset="1" stop-color="#00E58A"/>
</linearGradient>
<linearGradient id="paint24_linear_118_82" x1="832.795" y1="452.615" x2="832.795" y2="468.068" gradientUnits="userSpaceOnUse">
<stop stop-color="#00E58A" stop-opacity="0.53"/>
<stop offset="1" stop-color="#00E58A"/>
</linearGradient>
<linearGradient id="paint25_linear_118_82" x1="724.832" y1="361.025" x2="724.832" y2="368.671" gradientUnits="userSpaceOnUse">
<stop stop-color="#00E58A" stop-opacity="0.53"/>
<stop offset="1" stop-color="#00E58A"/>
</linearGradient>
<linearGradient id="paint26_linear_118_82" x1="724.835" y1="357.189" x2="724.835" y2="364.825" gradientUnits="userSpaceOnUse">
<stop stop-color="#00E58A" stop-opacity="0.53"/>
<stop offset="1" stop-color="#00E58A"/>
</linearGradient>
<linearGradient id="paint27_linear_118_82" x1="713.479" y1="357.181" x2="713.479" y2="364.833" gradientUnits="userSpaceOnUse">
<stop stop-color="#00E58A" stop-opacity="0.53"/>
<stop offset="1" stop-color="#00E58A"/>
</linearGradient>
<linearGradient id="paint28_linear_118_82" x1="713.479" y1="361.032" x2="713.479" y2="368.664" gradientUnits="userSpaceOnUse">
<stop stop-color="#00E58A" stop-opacity="0.53"/>
<stop offset="1" stop-color="#00E58A"/>
</linearGradient>
<linearGradient id="paint29_linear_118_82" x1="127" y1="422.295" x2="127" y2="439.788" gradientUnits="userSpaceOnUse">
<stop stop-color="#00E58A" stop-opacity="0.53"/>
<stop offset="1" stop-color="#00E58A"/>
</linearGradient>
<linearGradient id="paint30_linear_118_82" x1="34.4234" y1="490.976" x2="34.4234" y2="493.829" gradientUnits="userSpaceOnUse">
<stop stop-color="#00E58A" stop-opacity="0.53"/>
<stop offset="1" stop-color="#00E58A"/>
</linearGradient>
<linearGradient id="paint31_linear_118_82" x1="34.5" y1="495.077" x2="34.5" y2="511.308" gradientUnits="userSpaceOnUse">
<stop stop-color="#00E58A" stop-opacity="0.53"/>
<stop offset="1" stop-color="#00E58A"/>
</linearGradient>
<linearGradient id="paint32_linear_118_82" x1="193" y1="329" x2="193" y2="343.736" gradientUnits="userSpaceOnUse">
<stop stop-color="#00E58A" stop-opacity="0.53"/>
<stop offset="1" stop-color="#00E58A"/>
</linearGradient>
<linearGradient id="paint33_linear_118_82" x1="88.287" y1="366.318" x2="88.287" y2="381.264" gradientUnits="userSpaceOnUse">
<stop stop-color="#00E58A" stop-opacity="0.53"/>
<stop offset="1" stop-color="#00E58A"/>
</linearGradient>
<linearGradient id="paint34_linear_118_82" x1="138.857" y1="500.43" x2="138.857" y2="519.089" gradientUnits="userSpaceOnUse">
<stop stop-color="#00E58A" stop-opacity="0.53"/>
<stop offset="1" stop-color="#00E58A"/>
</linearGradient>
<linearGradient id="paint35_linear_118_82" x1="614.677" y1="26.174" x2="622.737" y2="48.318" gradientUnits="userSpaceOnUse">
<stop stop-color="#5C65D6"/>
<stop offset="0.999" stop-color="#464EB0"/>
</linearGradient>
<linearGradient id="paint36_linear_118_82" x1="611.498" y1="27.77" x2="619.296" y2="49.196" gradientUnits="userSpaceOnUse">
<stop stop-color="#5C65D6"/>
<stop offset="0.999" stop-color="#464EB0"/>
</linearGradient>
<linearGradient id="paint37_linear_118_82" x1="610.698" y1="28.455" x2="618.59" y2="50.14" gradientUnits="userSpaceOnUse">
<stop stop-color="#5C65D6"/>
<stop offset="0.999" stop-color="#464EB0"/>
</linearGradient>
<linearGradient id="paint38_linear_118_82" x1="610.03" y1="29.198" x2="617.861" y2="50.712" gradientUnits="userSpaceOnUse">
<stop stop-color="#5C65D6"/>
<stop offset="0.999" stop-color="#464EB0"/>
</linearGradient>
<linearGradient id="paint39_linear_118_82" x1="612.725" y1="29.582" x2="620.228" y2="50.197" gradientUnits="userSpaceOnUse">
<stop stop-color="#5C65D6"/>
<stop offset="0.999" stop-color="#464EB0"/>
</linearGradient>
<linearGradient id="paint40_linear_118_82" x1="502.189" y1="4.792" x2="519.276" y2="51.737" gradientUnits="userSpaceOnUse">
<stop stop-color="#2AA4F4"/>
<stop offset="1" stop-color="#007AD9"/>
</linearGradient>
</defs>
</svg>
