<svg width="939" height="707" viewBox="0 0 939 707" fill="none" xmlns="http://www.w3.org/2000/svg">
<path d="M730 13C649.748 81.4685 492.553 257.324 505.786 413" stroke="url(#paint0_linear_16_227)"/>
<path d="M846 1C727.584 71.5225 495.634 252.654 515.159 413" stroke="url(#paint1_linear_16_227)"/>
<path d="M896 34C759.751 100.414 492.868 270.995 515.334 422" stroke="url(#paint2_linear_16_227)"/>
<path d="M938 71C783.56 132.45 481.047 290.281 506.512 430" stroke="url(#paint3_linear_16_227)"/>
<path d="M635 13C548.272 84.9537 482.664 258.4 496.964 422" stroke="url(#paint4_linear_16_227)" stroke-opacity="0.97"/>
<path d="M546 13C509.101 110.132 479 362.528 479 442" stroke="url(#paint5_linear_16_227)"/>
<path d="M236 34C320.409 98.9667 477.049 297.286 463.131 445" stroke="url(#paint6_linear_16_227)"/>
<path d="M151 34C261.324 96.5957 466.055 287.677 447.864 430" stroke="url(#paint7_linear_16_227)"/>
<path d="M81 51C215.758 109.644 465.832 288.662 443.613 422" stroke="url(#paint8_linear_16_227)"/>
<path d="M0.999994 71C165.375 127.747 470.411 300.975 443.308 430" stroke="url(#paint9_linear_16_227)"/>
<path d="M300 25C414.929 90.8871 490.028 305.194 471.078 455" stroke="url(#paint10_linear_16_227)"/>
<path d="M387 13C477.583 112.578 478 379.527 478 461" stroke="url(#paint11_linear_16_227)"/>
<ellipse cx="495" cy="542" rx="271" ry="165" fill="url(#paint12_radial_16_227)"/>
<circle cx="483" cy="491" r="90" fill="url(#paint13_linear_16_227)"/>
<g filter="url(#filter0_d_16_227)">
<path fill-rule="evenodd" clip-rule="evenodd" d="M521.508 450.891C521.508 453.14 519.685 454.963 517.435 454.963H449.436C447.187 454.963 445.364 453.14 445.364 450.891C445.364 448.641 447.187 446.818 449.436 446.818H517.435C519.685 446.818 521.508 448.641 521.508 450.891Z" fill="white"/>
<path fill-rule="evenodd" clip-rule="evenodd" d="M521.508 532.746C521.508 534.995 519.685 536.818 517.435 536.818H449.436C447.187 536.818 445.364 534.995 445.364 532.746C445.364 530.496 447.187 528.673 449.436 528.673H517.435C519.685 528.673 521.508 530.496 521.508 532.746Z" fill="white"/>
<path d="M492.002 450.891L460.592 490.866L492.002 533.698" stroke="white" stroke-width="8"/>
</g>
<path d="M483.5 410.5C605.105 410.5 715.179 425.55 794.835 449.872C834.666 462.034 866.863 476.505 889.091 492.552C911.331 508.606 923.5 526.168 923.5 544.5C923.5 562.832 911.331 580.394 889.091 596.448C866.863 612.495 834.666 626.966 794.835 639.128C715.179 663.45 605.105 678.5 483.5 678.5C361.895 678.5 251.821 663.45 172.165 639.128C132.334 626.966 100.137 612.495 77.9092 596.448C55.6694 580.394 43.5 562.832 43.5 544.5C43.5 526.168 55.6694 508.606 77.9092 492.552C100.137 476.505 132.334 462.034 172.165 449.872C251.821 425.55 361.895 410.5 483.5 410.5Z" stroke="url(#paint14_linear_16_227)"/>
<path d="M488 410.5C593.445 410.5 688.887 425.55 757.949 449.866C792.482 462.025 820.394 476.492 839.661 492.531C858.931 508.573 869.5 526.137 869.5 544.5C869.5 562.863 858.931 580.427 839.661 596.469C820.394 612.508 792.482 626.975 757.949 639.134C688.887 663.45 593.445 678.5 488 678.5C382.555 678.5 287.113 663.45 218.051 639.134C183.518 626.975 155.606 612.508 136.339 596.469C117.069 580.427 106.5 562.863 106.5 544.5C106.5 526.137 117.069 508.573 136.339 492.531C155.606 476.492 183.518 462.025 218.051 449.866C287.113 425.55 382.555 410.5 488 410.5Z" stroke="url(#paint15_linear_16_227)"/>
<path d="M498.5 410.5C594.414 410.5 681.225 425.548 744.039 449.86C775.448 462.017 800.832 476.481 818.354 492.516C835.877 508.55 845.5 526.118 845.5 544.5C845.5 562.882 835.877 580.45 818.354 596.484C800.832 612.519 775.448 626.983 744.039 639.14C681.225 663.452 594.414 678.5 498.5 678.5C402.586 678.5 315.775 663.452 252.961 639.14C221.552 626.983 196.168 612.519 178.646 596.484C161.123 580.45 151.5 562.882 151.5 544.5C151.5 526.118 161.123 508.55 178.646 492.516C196.168 476.481 221.552 462.017 252.961 449.86C315.775 425.548 402.586 410.5 498.5 410.5Z" stroke="url(#paint16_linear_16_227)"/>
<path d="M485 400.5C526.322 400.5 563.714 413.23 590.764 433.788C617.813 454.346 634.5 482.71 634.5 514C634.5 545.29 617.813 573.654 590.764 594.212C563.714 614.77 526.322 627.5 485 627.5C443.678 627.5 406.286 614.77 379.236 594.212C352.187 573.654 335.5 545.29 335.5 514C335.5 482.71 352.187 454.346 379.236 433.788C406.286 413.23 443.678 400.5 485 400.5Z" stroke="url(#paint17_linear_16_227)"/>
<path d="M480 400.5C516.357 400.5 549.252 411.162 573.045 428.376C596.839 445.59 611.5 469.329 611.5 495.5C611.5 521.671 596.839 545.41 573.045 562.624C549.252 579.838 516.357 590.5 480 590.5C443.643 590.5 410.748 579.838 386.955 562.624C363.161 545.41 348.5 521.671 348.5 495.5C348.5 469.329 363.161 445.59 386.955 428.376C410.748 411.162 443.643 400.5 480 400.5Z" stroke="url(#paint18_linear_16_227)"/>
<path d="M896.093 498.749C896.093 497.196 894.426 495.725 891.87 494.813C892.46 491.776 892.198 489.358 891.043 488.584C890.763 488.401 890.446 488.309 890.125 488.317V489.382C890.314 489.382 890.465 489.426 890.593 489.507C891.149 489.88 891.391 491.297 891.203 493.122C891.158 493.571 891.084 494.044 890.994 494.526C890.138 494.285 889.269 494.112 888.393 494.006C887.872 493.166 887.302 492.368 886.69 491.617C888.025 490.17 889.278 489.378 890.131 489.378V488.312C889.004 488.312 887.529 489.249 886.038 490.872C884.548 489.26 883.073 488.332 881.947 488.332V489.396C882.795 489.396 884.052 490.185 885.388 491.622C884.814 492.325 884.241 493.122 883.696 494.006C882.818 494.11 881.948 494.286 881.091 494.531C881.001 494.074 880.929 493.612 880.878 493.146C880.685 491.321 880.923 489.903 881.476 489.526C881.598 489.44 881.758 489.401 881.947 489.401V488.337C881.603 488.337 881.291 488.423 881.022 488.603C879.87 489.378 879.613 491.789 880.206 494.818C877.659 495.736 876 497.201 876 498.749C876 500.301 877.667 501.772 880.223 502.683C879.633 505.722 879.895 508.139 881.05 508.912C881.316 509.094 881.628 509.18 881.971 509.18C883.098 509.18 884.572 508.244 886.063 506.62C887.554 508.234 889.028 509.16 890.155 509.16C890.478 509.168 890.797 509.076 891.08 508.893C892.231 508.12 892.489 505.708 891.895 502.679C894.435 501.767 896.093 500.296 896.093 498.749ZM890.76 495.563C890.601 496.201 890.417 496.831 890.208 497.449C889.865 496.673 889.489 495.917 889.081 495.185C889.663 495.286 890.224 495.41 890.761 495.563H890.76ZM888.885 500.65C888.578 501.274 888.249 501.883 887.898 502.474C886.669 502.601 885.433 502.602 884.204 502.479C883.499 501.305 882.882 500.062 882.361 498.763C882.882 497.462 883.495 496.214 884.196 495.034C885.425 494.907 886.66 494.905 887.889 495.028C888.229 495.596 888.562 496.203 888.881 496.844C889.192 497.469 889.475 498.103 889.733 498.744C889.472 499.392 889.189 500.028 888.885 500.65ZM890.208 500.029C890.429 500.668 890.618 501.309 890.773 501.93C890.237 502.083 889.671 502.212 889.086 502.311C889.492 501.573 889.866 500.811 890.208 500.029ZM886.055 505.125C885.674 504.666 885.293 504.156 884.916 503.596C885.285 503.616 885.661 503.63 886.042 503.63C886.428 503.63 886.808 503.621 887.181 503.596C886.813 504.156 886.432 504.666 886.055 505.125ZM883.007 502.311C882.443 502.216 881.883 502.09 881.328 501.934C881.48 501.318 881.668 500.683 881.881 500.048C882.049 500.429 882.226 500.812 882.418 501.194C882.611 501.576 882.807 501.949 883.007 502.311ZM886.034 492.372C886.415 492.831 886.796 493.342 887.173 493.901C886.804 493.882 886.428 493.867 886.047 493.867C885.661 493.867 885.281 493.877 884.908 493.901C885.276 493.342 885.657 492.831 886.034 492.372ZM883.003 495.186C882.597 495.923 882.223 496.683 881.881 497.464C881.666 496.841 881.478 496.207 881.316 495.563C881.852 495.414 882.418 495.286 883.003 495.186ZM879.297 501.165C877.847 500.445 876.909 499.498 876.909 498.749C876.909 497.999 877.847 497.048 879.297 496.332C879.649 496.155 880.034 495.997 880.431 495.85C880.665 496.785 880.972 497.76 881.352 498.758C880.993 499.698 880.69 500.665 880.444 501.652C880.055 501.512 879.672 501.349 879.297 501.165ZM881.5 507.99C880.944 507.619 880.702 506.199 880.89 504.375C880.935 503.926 881.009 503.453 881.099 502.97C881.902 503.2 882.778 503.377 883.7 503.492C884.222 504.331 884.791 505.129 885.404 505.88C884.068 507.327 882.815 508.12 881.963 508.12C881.802 508.122 881.643 508.077 881.5 507.991V507.99ZM891.216 504.351C891.408 506.176 891.17 507.594 890.617 507.971C890.495 508.057 890.335 508.095 890.146 508.095C889.298 508.095 888.041 507.307 886.705 505.869C887.316 505.121 887.881 504.325 888.397 503.487C889.275 503.382 890.145 503.206 891.002 502.962C891.097 503.444 891.169 503.907 891.216 504.351ZM892.792 501.165C892.44 501.342 892.055 501.5 891.658 501.647C891.407 500.655 891.1 499.683 890.737 498.739C891.113 497.746 891.416 496.776 891.645 495.845C892.035 495.986 892.419 496.148 892.796 496.332C894.246 497.053 895.184 497.999 895.184 498.749C895.18 499.498 894.242 500.449 892.792 501.165Z" fill="url(#paint19_linear_16_227)"/>
<path d="M886.042 500.931C886.539 500.931 887.015 500.701 887.366 500.292C887.717 499.882 887.914 499.327 887.914 498.748C887.914 498.169 887.717 497.614 887.366 497.204C887.015 496.795 886.539 496.565 886.042 496.565C885.546 496.565 885.07 496.795 884.719 497.204C884.368 497.614 884.17 498.169 884.17 498.748C884.17 499.327 884.368 499.882 884.719 500.292C885.07 500.701 885.546 500.931 886.042 500.931Z" fill="url(#paint20_linear_16_227)"/>
<path d="M825.607 457.991H815.393C814.624 457.991 814 458.719 814 459.616V471.527C814 472.424 814.624 473.152 815.393 473.152H825.607C826.376 473.152 827 472.424 827 471.527V459.616C827 458.719 826.376 457.991 825.607 457.991ZM821.075 469.815C821.075 471.29 820.332 471.964 819.249 471.964C818.271 471.964 817.706 471.375 817.415 470.661L818.411 469.96C818.602 470.356 818.776 470.691 819.197 470.691C819.598 470.691 819.853 470.509 819.853 469.795V464.952H821.075V469.815ZM823.965 471.964C822.83 471.964 822.096 471.334 821.739 470.509L822.734 469.839C822.996 470.336 823.338 470.705 823.939 470.705C824.444 470.705 824.769 470.411 824.769 470.001C824.769 469.514 824.438 469.341 823.878 469.054L823.573 468.901C822.691 468.465 822.108 467.913 822.108 466.752C822.108 465.683 822.807 464.871 823.895 464.871C824.673 464.871 825.23 465.186 825.63 466.011L824.679 466.722C824.47 466.285 824.243 466.113 823.892 466.113C823.535 466.113 823.309 466.377 823.309 466.722C823.309 467.148 823.535 467.321 824.06 467.588L824.365 467.741C825.404 468.258 825.987 468.79 825.987 469.981C825.987 471.26 825.123 471.964 823.965 471.964Z" fill="url(#paint21_linear_16_227)"/>
<path d="M929.996 562.948C929.756 562.948 929.513 562.869 929.302 562.72L927.092 561.115C926.763 560.886 926.924 560.807 927.031 560.763C927.472 560.574 927.561 560.535 928.03 560.205C928.081 560.17 928.145 560.183 928.195 560.222L929.893 561.458C929.953 561.502 930.039 561.502 930.097 561.458L936.711 556.771C936.772 556.727 936.811 556.639 936.811 556.551V547.177C936.811 547.085 936.772 547.001 936.707 546.953L930.097 542.271C930.036 542.227 929.953 542.227 929.893 542.271L923.286 546.957C923.221 547.001 923.182 547.089 923.182 547.182V556.551C923.182 556.639 923.221 556.727 923.286 556.767L925.098 558.05C926.082 558.653 926.684 557.945 926.684 557.228V547.978C926.684 547.846 926.77 547.744 926.877 547.744H927.715C927.819 547.744 927.909 547.846 927.909 547.978V557.233C927.909 558.842 927.192 559.765 925.95 559.765C925.567 559.765 925.266 559.765 924.428 559.255L922.695 558.028C922.265 557.725 922 557.158 922 556.547V547.177C922 546.571 922.265 545.999 922.695 545.696L929.302 541.009C929.721 540.718 930.276 540.718 930.691 541.009L937.305 545.7C937.735 546.003 938 546.571 938 547.182V556.551C938 557.158 937.735 557.725 937.305 558.033L930.691 562.72C930.48 562.869 930.24 562.948 929.996 562.948ZM935.336 553.711C935.336 551.957 934.369 551.491 932.338 551.161C930.283 550.827 930.075 550.655 930.075 550.066C930.075 549.578 930.251 548.927 931.773 548.927C933.13 548.927 933.631 549.288 933.839 550.413C933.857 550.519 933.936 550.598 934.025 550.598H934.885C934.938 550.598 934.988 550.572 935.024 550.523C935.06 550.475 935.078 550.409 935.074 550.343C934.942 548.404 933.893 547.503 931.773 547.503C929.885 547.503 928.761 548.479 928.761 550.119C928.761 551.895 929.882 552.387 931.69 552.607C933.857 552.867 934.025 553.258 934.025 553.781C934.025 554.687 933.431 555.074 932.038 555.074C930.286 555.074 929.903 554.533 929.774 553.465C929.76 553.35 929.681 553.267 929.585 553.267H928.729C928.621 553.267 928.539 553.372 928.539 553.5C928.539 554.867 929.144 556.498 932.041 556.498C934.132 556.494 935.336 555.478 935.336 553.711Z" fill="url(#paint22_linear_16_227)"/>
<path fill-rule="evenodd" clip-rule="evenodd" d="M812.035 628.254C810.353 628.254 809 629.9 809 631.916C809 633.142 809.501 634.231 810.27 634.896C809.873 635.242 809.552 635.692 809.331 636.209C809.111 636.727 808.997 637.297 809 637.875C809 639.101 809.501 640.189 810.27 640.854C809.873 641.201 809.552 641.65 809.331 642.168C809.111 642.685 808.997 643.256 809 643.833C809 645.85 810.353 647.496 812.035 647.496C813.717 647.496 815.071 645.85 815.071 643.833V640.737C815.602 641.254 816.272 641.537 816.965 641.538C818.647 641.537 820 639.891 820 637.875C820.003 637.297 819.889 636.727 819.669 636.209C819.448 635.692 819.127 635.242 818.73 634.896C819.127 634.549 819.448 634.099 819.669 633.582C819.889 633.064 820.003 632.494 820 631.916C820 629.9 818.647 628.254 816.965 628.254H812.035ZM810.141 631.916C810.141 630.641 810.994 629.619 812.035 629.619H813.929V634.213H812.035C810.994 634.213 810.141 633.191 810.141 631.916ZM816.965 634.212H815.071V629.618H816.965C818.006 629.618 818.859 630.641 818.859 631.916C818.859 633.191 818.006 634.212 816.965 634.212ZM810.141 637.875C810.141 636.6 810.995 635.578 812.036 635.578H813.93V640.172H812.035C810.994 640.172 810.141 639.15 810.141 637.875H810.141ZM815.071 637.875C815.071 636.6 815.924 635.578 816.965 635.578C818.007 635.578 818.86 636.599 818.86 637.875C818.86 639.15 818.007 640.172 816.965 640.172C815.924 640.172 815.071 639.15 815.071 637.875H815.071ZM810.141 643.833C810.141 642.559 810.995 641.537 812.036 641.537H813.93V643.833C813.93 645.109 813.078 646.13 812.036 646.13C810.995 646.13 810.141 645.109 810.141 643.833Z" fill="url(#paint23_linear_16_227)"/>
<path d="M880.334 560.615H871.256C870.01 560.615 869 561.793 869 563.246V573.437C869 574.89 870.01 576.068 871.256 576.068H880.334C881.58 576.068 882.591 574.89 882.591 573.437V563.246C882.591 561.793 881.58 560.615 880.334 560.615Z" fill="url(#paint24_linear_16_227)"/>
<path d="M876.144 564.68L874.449 567.944L876.263 571.41C876.275 571.434 876.278 571.463 876.272 571.49C876.269 571.501 876.263 571.504 876.254 571.505L876.244 571.504L876.231 571.504C876.224 571.504 876.217 571.504 876.208 571.506H874.9L874.875 571.506C874.804 571.503 874.753 571.492 874.722 571.431C874.601 571.156 874.48 570.882 874.358 570.607C874.248 570.363 874.136 570.12 874.021 569.879L873.97 569.773C873.832 569.487 873.697 569.2 873.564 568.912H873.555C873.433 569.197 873.307 569.481 873.177 569.762C873.046 570.046 872.917 570.328 872.789 570.607C872.662 570.888 872.531 571.166 872.397 571.442C872.376 571.498 872.34 571.51 872.29 571.512L872.27 571.512H871.021L871.015 571.513L870.997 571.514C870.988 571.515 870.982 571.513 870.98 571.495C870.976 571.469 870.981 571.443 870.993 571.421L872.753 568.05L871.039 564.669C871.021 564.641 871.018 564.618 871.03 564.6C871.037 564.591 871.045 564.584 871.054 564.58C871.064 564.575 871.074 564.573 871.085 564.574H872.37C872.398 564.572 872.426 564.577 872.452 564.59C872.474 564.604 872.493 564.624 872.507 564.648C872.616 564.932 872.738 565.215 872.872 565.499C873.004 565.78 873.139 566.06 873.277 566.339C873.413 566.613 873.539 566.893 873.656 567.179H873.665C873.784 566.893 873.907 566.609 874.034 566.328C874.158 566.052 874.286 565.773 874.417 565.493C874.546 565.217 874.672 564.939 874.795 564.659C874.802 564.633 874.815 564.609 874.832 564.59C874.854 564.576 874.879 564.571 874.905 564.574H876.099C876.11 564.571 876.121 564.572 876.132 564.577C876.142 564.582 876.151 564.591 876.157 564.602C876.162 564.614 876.165 564.627 876.163 564.64C876.162 564.653 876.157 564.665 876.149 564.675L876.145 564.68L876.144 564.68ZM878.824 571.643L878.761 571.644C878.341 571.651 877.926 571.55 877.544 571.346C877.188 571.154 876.891 570.841 876.691 570.448C876.49 570.058 876.387 569.572 876.382 568.991L876.381 568.944C876.378 568.456 876.485 567.975 876.691 567.551C876.898 567.131 877.199 566.785 877.563 566.55L877.594 566.53C877.989 566.275 878.466 566.147 879.025 566.147L879.05 566.148L879.078 566.149L879.109 566.15L879.144 566.153L879.202 566.157L879.269 566.164L879.317 566.169V564.074C879.317 564.024 879.335 564 879.372 564H880.521C880.528 563.998 880.536 563.999 880.543 564.002C880.55 564.005 880.556 564.009 880.562 564.016C880.567 564.022 880.571 564.029 880.573 564.038C880.576 564.046 880.576 564.055 880.575 564.063V570.347C880.575 570.452 880.579 570.566 880.586 570.688L880.603 570.964L880.612 571.123C880.613 571.145 880.608 571.167 880.598 571.186C880.589 571.205 880.574 571.22 880.557 571.229C880.261 571.374 879.952 571.48 879.636 571.548C879.368 571.606 879.096 571.638 878.824 571.643V571.643ZM879.317 570.326V567.423C879.268 567.408 879.218 567.397 879.167 567.391C879.105 567.384 879.042 567.38 878.98 567.381C878.759 567.378 878.54 567.436 878.342 567.551C878.148 567.663 877.984 567.831 877.863 568.04C877.743 568.245 877.68 568.513 877.676 568.844L877.676 568.88C877.672 569.111 877.704 569.342 877.772 569.56C877.827 569.736 877.914 569.895 878.027 570.028C878.135 570.15 878.266 570.241 878.41 570.294C878.562 570.351 878.72 570.38 878.879 570.379C878.965 570.379 879.044 570.375 879.117 570.368C879.175 570.363 879.232 570.352 879.289 570.335L879.317 570.326V570.326Z" fill="white"/>
<path d="M766.624 471.445C767.693 470.729 768.759 470.007 769.831 469.299C770.849 468.626 772.046 469.246 772.277 470.555C772.41 471.312 772.121 472.13 771.535 472.528C769.613 473.834 767.689 475.135 765.755 476.416C765.156 476.812 764.54 476.739 763.994 476.253C763.44 475.76 763.265 475.08 763.395 474.288C763.544 473.686 763.883 473.283 764.346 472.981C765.112 472.483 765.865 471.958 766.624 471.445Z" fill="url(#paint25_linear_16_227)"/>
<path d="M767.409 470.925C766.343 470.203 765.274 469.488 764.212 468.759C763.203 468.067 763.065 466.548 763.922 465.66C764.417 465.147 765.169 465.031 765.758 465.423C767.689 466.711 769.617 468.004 771.535 469.317C772.129 469.723 772.383 470.383 772.295 471.176C772.206 471.982 771.788 472.499 771.135 472.764C770.613 472.915 770.144 472.774 769.689 472.457C768.936 471.932 768.169 471.434 767.409 470.925Z" fill="url(#paint26_linear_16_227)"/>
<path d="M757.693 470.414C757.009 470.868 756.325 471.32 755.641 471.775C755.242 472.04 754.846 472.315 754.444 472.577C753.635 473.104 752.673 472.795 752.214 471.867C751.776 470.981 752.028 469.833 752.807 469.302C754.714 468.005 756.625 466.717 758.543 465.443C759.131 465.052 759.741 465.101 760.285 465.568C760.86 466.061 761.047 466.755 760.919 467.568C760.839 467.765 760.791 467.995 760.671 468.15C760.476 468.403 760.255 468.644 760.008 468.821C759.246 469.37 758.466 469.886 757.693 470.414Z" fill="url(#paint27_linear_16_227)"/>
<path d="M756.909 470.922C757.587 471.386 758.265 471.851 758.945 472.314C759.342 472.585 759.744 472.847 760.139 473.122C760.935 473.676 761.187 474.801 760.727 475.729C760.288 476.614 759.31 476.934 758.526 476.412C756.609 475.136 754.697 473.85 752.792 472.55C752.208 472.151 751.939 471.51 752.014 470.727C752.093 469.901 752.514 469.364 753.182 469.088C753.368 469.07 753.563 469.003 753.738 469.046C754.023 469.117 754.313 469.22 754.568 469.38C755.357 469.876 756.13 470.406 756.909 470.922Z" fill="url(#paint28_linear_16_227)"/>
<path fill-rule="evenodd" clip-rule="evenodd" d="M170 530.295C166.134 530.295 163 534.211 163 539.041C163 543.871 166.134 547.788 170 547.788C173.866 547.788 177 543.871 177 539.041C177 534.211 173.866 530.295 170 530.295ZM170.082 544.156C167.825 544.156 165.998 541.868 165.998 539.041C165.998 536.215 167.825 533.926 170.082 533.926C171.184 533.926 172.106 534.434 172.813 535.259L171.661 536.701V536.698C171.233 536.186 170.689 535.924 170.082 535.924C168.734 535.924 167.639 537.35 167.639 539.038C167.639 540.726 168.734 542.156 170.082 542.156C171.304 542.156 172.136 541.28 172.308 540.077H170.082V538.082H173.923C173.974 538.425 174.002 538.782 174.002 539.156C174.002 542.079 172.44 544.156 170.082 544.156Z" fill="url(#paint29_linear_16_227)"/>
<path d="M74.2117 598.976H76.101V599.913H75.0017V600.851H76.101V601.788H74.2117V598.976ZM76.4784 598.976H78.3685V599.791H77.2692V599.954H78.3685V601.829H76.4784V600.973H77.5777V600.81H76.4784V598.976ZM78.7466 598.976H80.6352V599.791H79.5359V599.954H80.6352V601.829H78.7466V600.973H79.8459V600.81H78.7466V598.976Z" fill="url(#paint30_linear_16_227)"/>
<path fill-rule="evenodd" clip-rule="evenodd" d="M77.4935 619.308L72.4784 617.685L71 603.077H84L82.5223 617.683L77.4935 619.308ZM73.9228 609.69L74.0608 611.481H79.3886L79.2102 613.804L77.4957 614.344H77.4942L75.7826 613.805L75.6728 612.377H74.1294L74.3446 615.19L77.4935 616.209L80.6474 615.19L81.0317 610.17L81.0692 609.69L81.3466 606.063H73.6462L73.7863 607.855H79.6623L79.5222 609.69H73.9228Z" fill="url(#paint31_linear_16_227)"/>
<path d="M230.501 437.63H241.501V451.106H230.501V437.63ZM230 451.736H242V437H230V451.736ZM237.86 442.252C237.86 442.202 237.875 442.177 237.92 442.177H238.705C238.745 442.177 238.765 442.195 238.765 442.252V447.221C238.765 447.271 238.755 447.296 238.705 447.296H237.931C237.881 447.296 237.866 447.265 237.866 447.214V442.252H237.86H237.86ZM237.805 440.823C237.805 440.652 237.859 440.489 237.955 440.369C238.05 440.248 238.18 440.18 238.315 440.18C238.45 440.18 238.58 440.248 238.676 440.369C238.771 440.489 238.825 440.652 238.825 440.823C238.83 440.91 238.82 440.997 238.795 441.079C238.771 441.16 238.733 441.234 238.683 441.295C238.634 441.356 238.574 441.403 238.509 441.433C238.444 441.462 238.374 441.473 238.305 441.465C238.238 441.47 238.17 441.457 238.107 441.427C238.044 441.396 237.986 441.349 237.939 441.288C237.892 441.227 237.855 441.154 237.832 441.074C237.809 440.993 237.8 440.908 237.806 440.823H237.805ZM235.555 444.324C235.415 443.623 235.084 442.102 234.96 441.365H234.95C234.845 442.102 234.581 443.348 234.371 444.324H235.555ZM234.165 445.345L233.77 447.234C233.76 447.284 233.745 447.297 233.695 447.297H232.961C232.911 447.297 232.901 447.278 232.911 447.202L234.331 440.941C234.365 440.77 234.382 440.595 234.381 440.418C234.381 440.374 234.396 440.355 234.421 440.355H235.471C235.506 440.355 235.521 440.368 235.531 440.418L237.121 447.213C237.131 447.263 237.121 447.295 237.081 447.295H236.251C236.211 447.295 236.186 447.283 236.176 447.241L235.766 445.346H234.166L234.165 445.345Z" fill="url(#paint32_linear_16_227)"/>
<path fill-rule="evenodd" clip-rule="evenodd" d="M125 475.567C125 475.236 125.111 474.918 125.308 474.684C125.505 474.45 125.772 474.318 126.051 474.318H136.522C136.66 474.318 136.797 474.35 136.925 474.413C137.052 474.475 137.168 474.567 137.266 474.683C137.364 474.799 137.441 474.937 137.494 475.089C137.547 475.24 137.574 475.403 137.574 475.567V488.014C137.574 488.178 137.547 488.341 137.494 488.492C137.442 488.644 137.364 488.782 137.267 488.898C137.169 489.014 137.053 489.106 136.925 489.169C136.798 489.232 136.661 489.264 136.523 489.264H126.051C125.912 489.264 125.776 489.232 125.648 489.169C125.521 489.106 125.405 489.014 125.307 488.898C125.21 488.782 125.133 488.644 125.08 488.493C125.027 488.341 125 488.179 125 488.015V475.567ZM129.977 480.017H131.68V481.033C131.925 480.449 132.554 479.923 133.499 479.923C135.31 479.923 135.739 481.087 135.739 483.222V487.177H133.906V483.708C133.906 482.492 133.661 481.806 133.037 481.806C132.171 481.806 131.811 482.546 131.811 483.708V487.177H129.977V480.017ZM126.834 487.084H128.667V479.923H126.834V487.083V487.084ZM128.929 477.587C128.933 477.774 128.905 477.959 128.847 478.133C128.79 478.307 128.703 478.465 128.593 478.598C128.484 478.732 128.353 478.838 128.208 478.91C128.063 478.982 127.908 479.02 127.751 479.02C127.594 479.02 127.438 478.982 127.293 478.91C127.149 478.838 127.017 478.732 126.908 478.598C126.798 478.465 126.712 478.307 126.654 478.133C126.596 477.959 126.568 477.774 126.572 477.587C126.579 477.221 126.706 476.873 126.926 476.616C127.146 476.36 127.442 476.217 127.751 476.217C128.059 476.217 128.355 476.36 128.575 476.616C128.795 476.873 128.923 477.221 128.929 477.587Z" fill="url(#paint33_linear_16_227)"/>
<path d="M183.754 608.43L185.232 610.826L192.714 608.43M175.979 627.089L180.027 622.516L177.591 619.495M183.14 608.43L180.977 610.682L184.616 610.838M174.731 608.431L175.507 610.271L179.79 610.578M177.023 617.971L180.187 611.153L171 610.577M177.391 618.402L180.38 622.111L183.676 618.379L184.698 611.425L180.682 611.186L177.391 618.402Z" fill="url(#paint34_linear_16_227)"/>
<defs>
<filter id="filter0_d_16_227" x="431.364" y="433.818" width="104.144" height="118" filterUnits="userSpaceOnUse" color-interpolation-filters="sRGB">
<feFlood flood-opacity="0" result="BackgroundImageFix"/>
<feColorMatrix in="SourceAlpha" type="matrix" values="0 0 0 0 0 0 0 0 0 0 0 0 0 0 0 0 0 0 127 0" result="hardAlpha"/>
<feOffset dy="1"/>
<feGaussianBlur stdDeviation="7"/>
<feComposite in2="hardAlpha" operator="out"/>
<feColorMatrix type="matrix" values="0 0 0 0 1 0 0 0 0 1 0 0 0 0 1 0 0 0 0.55 0"/>
<feBlend mode="normal" in2="BackgroundImageFix" result="effect1_dropShadow_16_227"/>
<feBlend mode="normal" in="SourceGraphic" in2="effect1_dropShadow_16_227" result="shape"/>
</filter>
<linearGradient id="paint0_linear_16_227" x1="617.5" y1="13" x2="617.5" y2="413" gradientUnits="userSpaceOnUse">
<stop stop-color="#00E58A"/>
<stop offset="1" stop-color="#00E58A" stop-opacity="0"/>
</linearGradient>
<linearGradient id="paint1_linear_16_227" x1="680" y1="1" x2="680" y2="413" gradientUnits="userSpaceOnUse">
<stop stop-color="#00E58A"/>
<stop offset="1" stop-color="#00E58A" stop-opacity="0"/>
</linearGradient>
<linearGradient id="paint2_linear_16_227" x1="705" y1="34" x2="705" y2="422" gradientUnits="userSpaceOnUse">
<stop stop-color="#00E58A"/>
<stop offset="1" stop-color="#00E58A" stop-opacity="0"/>
</linearGradient>
<linearGradient id="paint3_linear_16_227" x1="721.5" y1="71" x2="721.5" y2="430" gradientUnits="userSpaceOnUse">
<stop stop-color="#00E58A"/>
<stop offset="1" stop-color="#00E58A" stop-opacity="0"/>
</linearGradient>
<linearGradient id="paint4_linear_16_227" x1="565" y1="13" x2="565" y2="422" gradientUnits="userSpaceOnUse">
<stop stop-color="#00E58A"/>
<stop offset="1" stop-color="#00E58A" stop-opacity="0"/>
</linearGradient>
<linearGradient id="paint5_linear_16_227" x1="512.5" y1="13" x2="512.5" y2="442" gradientUnits="userSpaceOnUse">
<stop stop-color="#00E58A"/>
<stop offset="1" stop-color="#00E58A" stop-opacity="0"/>
</linearGradient>
<linearGradient id="paint6_linear_16_227" x1="359.235" y1="68.193" x2="359.235" y2="445" gradientUnits="userSpaceOnUse">
<stop stop-color="#00E58A"/>
<stop offset="1" stop-color="#00E58A" stop-opacity="0"/>
</linearGradient>
<linearGradient id="paint7_linear_16_227" x1="312.07" y1="66.9451" x2="312.07" y2="430" gradientUnits="userSpaceOnUse">
<stop stop-color="#00E58A"/>
<stop offset="1" stop-color="#00E58A" stop-opacity="0"/>
</linearGradient>
<linearGradient id="paint8_linear_16_227" x1="277.743" y1="81.8652" x2="277.743" y2="422" gradientUnits="userSpaceOnUse">
<stop stop-color="#00E58A"/>
<stop offset="1" stop-color="#00E58A" stop-opacity="0"/>
</linearGradient>
<linearGradient id="paint9_linear_16_227" x1="240.984" y1="100.867" x2="240.984" y2="430" gradientUnits="userSpaceOnUse">
<stop stop-color="#00E58A"/>
<stop offset="1" stop-color="#00E58A" stop-opacity="0"/>
</linearGradient>
<linearGradient id="paint10_linear_16_227" x1="395.863" y1="56.9032" x2="395.863" y2="455" gradientUnits="userSpaceOnUse">
<stop stop-color="#00E58A"/>
<stop offset="1" stop-color="#00E58A" stop-opacity="0"/>
</linearGradient>
<linearGradient id="paint11_linear_16_227" x1="487.41" y1="65.8929" x2="487.41" y2="474.767" gradientUnits="userSpaceOnUse">
<stop stop-color="#00E58A"/>
<stop offset="1" stop-color="#00E58A" stop-opacity="0"/>
</linearGradient>
<radialGradient id="paint12_radial_16_227" cx="0" cy="0" r="1" gradientUnits="userSpaceOnUse" gradientTransform="translate(495 542) rotate(90) scale(165 271)">
<stop stop-color="#00E58A"/>
<stop offset="1" stop-color="#5CFDBD" stop-opacity="0"/>
</radialGradient>
<linearGradient id="paint13_linear_16_227" x1="483" y1="401" x2="483" y2="581" gradientUnits="userSpaceOnUse">
<stop stop-color="#5CFDBD" stop-opacity="0.6"/>
<stop offset="1" stop-color="#058E57" stop-opacity="0.36"/>
</linearGradient>
<linearGradient id="paint14_linear_16_227" x1="483.5" y1="410" x2="483.5" y2="679" gradientUnits="userSpaceOnUse">
<stop stop-color="#00E58A" stop-opacity="0"/>
<stop offset="0.490385" stop-color="#00E58A"/>
</linearGradient>
<linearGradient id="paint15_linear_16_227" x1="488" y1="410" x2="488" y2="679" gradientUnits="userSpaceOnUse">
<stop stop-color="#00E58A" stop-opacity="0"/>
<stop offset="0.479167" stop-color="#00E58A"/>
</linearGradient>
<linearGradient id="paint16_linear_16_227" x1="498.5" y1="410" x2="498.5" y2="679" gradientUnits="userSpaceOnUse">
<stop stop-color="#00E58A" stop-opacity="0"/>
<stop offset="0.653846" stop-color="#00E58A"/>
</linearGradient>
<linearGradient id="paint17_linear_16_227" x1="485" y1="400" x2="485" y2="628" gradientUnits="userSpaceOnUse">
<stop stop-color="#00E58A" stop-opacity="0"/>
<stop offset="1" stop-color="#00E58A"/>
</linearGradient>
<linearGradient id="paint18_linear_16_227" x1="480" y1="400" x2="480" y2="591" gradientUnits="userSpaceOnUse">
<stop stop-color="#00E58A" stop-opacity="0"/>
<stop offset="1" stop-color="#00E58A"/>
</linearGradient>
<linearGradient id="paint19_linear_16_227" x1="886.047" y1="488.312" x2="886.047" y2="509.18" gradientUnits="userSpaceOnUse">
<stop stop-color="#00E58A" stop-opacity="0.53"/>
<stop offset="1" stop-color="#00E58A"/>
</linearGradient>
<linearGradient id="paint20_linear_16_227" x1="886.042" y1="496.565" x2="886.042" y2="500.931" gradientUnits="userSpaceOnUse">
<stop stop-color="#00E58A" stop-opacity="0.53"/>
<stop offset="1" stop-color="#00E58A"/>
</linearGradient>
<linearGradient id="paint21_linear_16_227" x1="820.5" y1="457.991" x2="820.5" y2="473.152" gradientUnits="userSpaceOnUse">
<stop stop-color="#00E58A" stop-opacity="0.53"/>
<stop offset="1" stop-color="#00E58A"/>
</linearGradient>
<linearGradient id="paint22_linear_16_227" x1="930" y1="540.791" x2="930" y2="562.948" gradientUnits="userSpaceOnUse">
<stop stop-color="#00E58A" stop-opacity="0.53"/>
<stop offset="1" stop-color="#00E58A"/>
</linearGradient>
<linearGradient id="paint23_linear_16_227" x1="814.5" y1="628.254" x2="814.5" y2="647.496" gradientUnits="userSpaceOnUse">
<stop stop-color="#00E58A" stop-opacity="0.53"/>
<stop offset="1" stop-color="#00E58A"/>
</linearGradient>
<linearGradient id="paint24_linear_16_227" x1="875.795" y1="560.615" x2="875.795" y2="576.068" gradientUnits="userSpaceOnUse">
<stop stop-color="#00E58A" stop-opacity="0.53"/>
<stop offset="1" stop-color="#00E58A"/>
</linearGradient>
<linearGradient id="paint25_linear_16_227" x1="767.832" y1="469.025" x2="767.832" y2="476.671" gradientUnits="userSpaceOnUse">
<stop stop-color="#00E58A" stop-opacity="0.53"/>
<stop offset="1" stop-color="#00E58A"/>
</linearGradient>
<linearGradient id="paint26_linear_16_227" x1="767.835" y1="465.189" x2="767.835" y2="472.825" gradientUnits="userSpaceOnUse">
<stop stop-color="#00E58A" stop-opacity="0.53"/>
<stop offset="1" stop-color="#00E58A"/>
</linearGradient>
<linearGradient id="paint27_linear_16_227" x1="756.479" y1="465.181" x2="756.479" y2="472.833" gradientUnits="userSpaceOnUse">
<stop stop-color="#00E58A" stop-opacity="0.53"/>
<stop offset="1" stop-color="#00E58A"/>
</linearGradient>
<linearGradient id="paint28_linear_16_227" x1="756.479" y1="469.032" x2="756.479" y2="476.664" gradientUnits="userSpaceOnUse">
<stop stop-color="#00E58A" stop-opacity="0.53"/>
<stop offset="1" stop-color="#00E58A"/>
</linearGradient>
<linearGradient id="paint29_linear_16_227" x1="170" y1="530.295" x2="170" y2="547.788" gradientUnits="userSpaceOnUse">
<stop stop-color="#00E58A" stop-opacity="0.53"/>
<stop offset="1" stop-color="#00E58A"/>
</linearGradient>
<linearGradient id="paint30_linear_16_227" x1="77.4234" y1="598.976" x2="77.4234" y2="601.829" gradientUnits="userSpaceOnUse">
<stop stop-color="#00E58A" stop-opacity="0.53"/>
<stop offset="1" stop-color="#00E58A"/>
</linearGradient>
<linearGradient id="paint31_linear_16_227" x1="77.5" y1="603.077" x2="77.5" y2="619.308" gradientUnits="userSpaceOnUse">
<stop stop-color="#00E58A" stop-opacity="0.53"/>
<stop offset="1" stop-color="#00E58A"/>
</linearGradient>
<linearGradient id="paint32_linear_16_227" x1="236" y1="437" x2="236" y2="451.736" gradientUnits="userSpaceOnUse">
<stop stop-color="#00E58A" stop-opacity="0.53"/>
<stop offset="1" stop-color="#00E58A"/>
</linearGradient>
<linearGradient id="paint33_linear_16_227" x1="131.287" y1="474.318" x2="131.287" y2="489.264" gradientUnits="userSpaceOnUse">
<stop stop-color="#00E58A" stop-opacity="0.53"/>
<stop offset="1" stop-color="#00E58A"/>
</linearGradient>
<linearGradient id="paint34_linear_16_227" x1="181.857" y1="608.43" x2="181.857" y2="627.089" gradientUnits="userSpaceOnUse">
<stop stop-color="#00E58A" stop-opacity="0.53"/>
<stop offset="1" stop-color="#00E58A"/>
</linearGradient>
</defs>
</svg>
